<?xml version="1.0" encoding="UTF-8" standalone="no"?>
<!-- Created with Bouml (http://bouml.free.fr/) -->
<!DOCTYPE svg PUBLIC "-//W3C//DTD SVG 1.1//EN" "http://www.w3.org/Graphics/SVG/1.1/DTD/svg11.dtd">
<svg width="177" height="571" version="1.1" xmlns="http://www.w3.org/2000/svg">
<g>
	<rect fill="#808080" stroke="none" stroke-opacity="1" x="157" y="26" width="5" height="97" />
	<rect fill="#808080" stroke="none" stroke-opacity="1" x="27" y="118" width="135" height="5" />
	<rect fill="#ffffc0" stroke="black" stroke-width="1" stroke-opacity="1" x="21" y="20" width="136" height="98" />
	<text font-family="Helvetica" font-size="14" fill="#000000" xml:space="preserve" font-weight="bold" font-style="italic" text-anchor="middle" x="89" y="37">ICelestialBody</text>
	<line stroke="black" stroke-opacity="1" x1="21" y1="50" x2="157" y2="50" />
	<line stroke="black" stroke-opacity="1" x1="21" y1="62" x2="157" y2="62" />
	<text font-family="Helvetica" font-size="14" fill="#000000" xml:space="preserve" font-style="italic" x="27" y="79">get_x()</text>
	<text font-family="Helvetica" font-size="14" fill="#000000" xml:space="preserve" font-style="italic" x="27" y="106">get_y()</text>
</g>
<g>
	<rect fill="#808080" stroke="none" stroke-opacity="1" x="159" y="469" width="5" height="89" />
	<rect fill="#808080" stroke="none" stroke-opacity="1" x="19" y="553" width="145" height="5" />
	<rect fill="#ffffc0" stroke="black" stroke-width="1" stroke-opacity="1" x="13" y="463" width="146" height="90" />
	<text font-family="Helvetica" font-size="14" fill="#000000" xml:space="preserve" font-weight="bold" text-anchor="middle" x="86" y="480">Planet</text>
	<line stroke="black" stroke-opacity="1" x1="13" y1="493" x2="159" y2="493" />
	<text font-family="Helvetica" font-size="14" fill="#000000" xml:space="preserve" x="19" y="510">r</text>
	<line stroke="black" stroke-opacity="1" x1="13" y1="523" x2="159" y2="523" />
	<text font-family="Helvetica" font-size="14" fill="#000000" xml:space="preserve" x="19" y="540">detect_collision()</text>
</g>
<g>
	<line stroke="black" stroke-opacity="1" x1="90" y1="182" x2="90" y2="129" />
	<line stroke="black" stroke-opacity="1" x1="91" y1="124" x2="84" y2="129" />
	<line stroke="black" stroke-opacity="1" x1="91" y1="124" x2="96" y2="130" />
	<line stroke="black" stroke-opacity="1" x1="84" y1="129" x2="96" y2="130" />
</g>
<g>
	<rect fill="#808080" stroke="none" stroke-opacity="1" x="152" y="189" width="5" height="197" />
	<rect fill="#808080" stroke="none" stroke-opacity="1" x="28" y="381" width="129" height="5" />
	<rect fill="#ffffc0" stroke="black" stroke-width="1" stroke-opacity="1" x="22" y="183" width="130" height="198" />
	<text font-family="Helvetica" font-size="14" fill="#000000" xml:space="preserve" font-weight="bold" text-anchor="middle" x="87" y="200">CelestialBody</text>
	<line stroke="black" stroke-opacity="1" x1="22" y1="213" x2="152" y2="213" />
	<text font-family="Helvetica" font-size="14" fill="#000000" xml:space="preserve" x="28" y="230">x</text>
	<text font-family="Helvetica" font-size="14" fill="#000000" xml:space="preserve" x="28" y="257">y</text>
	<text font-family="Helvetica" font-size="14" fill="#000000" xml:space="preserve" x="28" y="284">m</text>
	<line stroke="black" stroke-opacity="1" x1="22" y1="297" x2="152" y2="297" />
	<text font-family="Helvetica" font-size="14" fill="#000000" xml:space="preserve" x="28" y="314">get_x()</text>
	<text font-family="Helvetica" font-size="14" fill="#000000" xml:space="preserve" x="28" y="341">get_y()</text>
	<text font-family="Helvetica" font-size="14" fill="#000000" xml:space="preserve" x="28" y="368">apply_force()</text>
</g>
<g>
	<line stroke="black" stroke-opacity="1" x1="89" y1="462" x2="89" y2="393" />
	<line stroke="black" stroke-opacity="1" x1="89" y1="387" x2="83" y2="393" />
	<line stroke="black" stroke-opacity="1" x1="89" y1="387" x2="95" y2="393" />
	<line stroke="black" stroke-opacity="1" x1="83" y1="393" x2="95" y2="393" />
</g>
</svg>
