<?xml version="1.0" encoding="UTF-8" standalone="no"?>
<!-- Created with Bouml (http://bouml.free.fr/) -->
<!DOCTYPE svg PUBLIC "-//W3C//DTD SVG 1.1//EN" "http://www.w3.org/Graphics/SVG/1.1/DTD/svg11.dtd">
<svg width="636" height="556" version="1.1" xmlns="http://www.w3.org/2000/svg">
<g>
	<rect fill="#808080" stroke="none" stroke-opacity="1" x="386" y="22" width="5" height="111" />
	<rect fill="#808080" stroke="none" stroke-opacity="1" x="232" y="128" width="159" height="5" />
	<rect fill="#ffffc0" stroke="black" stroke-width="1" stroke-opacity="1" x="226" y="16" width="160" height="112" />
	<text font-family="Helvetica" font-size="16" fill="#000000" xml:space="preserve" font-weight="bold" font-style="italic" text-anchor="middle" x="306" y="35">ICelestialBody</text>
	<line stroke="black" stroke-opacity="1" x1="226" y1="50" x2="386" y2="50" />
	<line stroke="black" stroke-opacity="1" x1="226" y1="63" x2="386" y2="63" />
	<text font-family="Helvetica" font-size="16" fill="#000000" xml:space="preserve" font-style="italic" x="233" y="82">get_x()</text>
	<text font-family="Helvetica" font-size="16" fill="#000000" xml:space="preserve" font-style="italic" x="233" y="113">get_y()</text>
</g>
<g>
	<rect fill="#808080" stroke="none" stroke-opacity="1" x="181" y="249" width="5" height="225" />
	<rect fill="#808080" stroke="none" stroke-opacity="1" x="33" y="469" width="153" height="5" />
	<rect fill="#ffffc0" stroke="black" stroke-width="1" stroke-opacity="1" x="27" y="243" width="154" height="226" />
	<text font-family="Helvetica" font-size="16" fill="#000000" xml:space="preserve" font-weight="bold" text-anchor="middle" x="104" y="262">CelestialBody</text>
	<line stroke="black" stroke-opacity="1" x1="27" y1="277" x2="181" y2="277" />
	<text font-family="Helvetica" font-size="16" fill="#000000" xml:space="preserve" x="34" y="296">x</text>
	<text font-family="Helvetica" font-size="16" fill="#000000" xml:space="preserve" x="34" y="327">y</text>
	<text font-family="Helvetica" font-size="16" fill="#000000" xml:space="preserve" x="34" y="358">m</text>
	<line stroke="black" stroke-opacity="1" x1="27" y1="373" x2="181" y2="373" />
	<text font-family="Helvetica" font-size="16" fill="#000000" xml:space="preserve" x="34" y="392">get_x()</text>
	<text font-family="Helvetica" font-size="16" fill="#000000" xml:space="preserve" x="34" y="423">get_y()</text>
	<text font-family="Helvetica" font-size="16" fill="#000000" xml:space="preserve" x="34" y="454">apply_force()</text>
</g>
<g>
	<rect fill="#808080" stroke="none" stroke-opacity="1" x="618" y="256" width="5" height="287" />
	<rect fill="#808080" stroke="none" stroke-opacity="1" x="448" y="538" width="175" height="5" />
	<rect fill="#ffffc0" stroke="black" stroke-width="1" stroke-opacity="1" x="442" y="250" width="176" height="288" />
	<text font-family="Helvetica" font-size="16" fill="#000000" xml:space="preserve" font-weight="bold" text-anchor="middle" x="530" y="269">Planet</text>
	<line stroke="black" stroke-opacity="1" x1="442" y1="284" x2="618" y2="284" />
	<text font-family="Helvetica" font-size="16" fill="#000000" xml:space="preserve" x="449" y="303">x</text>
	<text font-family="Helvetica" font-size="16" fill="#000000" xml:space="preserve" x="449" y="334">y</text>
	<text font-family="Helvetica" font-size="16" fill="#000000" xml:space="preserve" x="449" y="365">m</text>
	<text font-family="Helvetica" font-size="16" fill="#000000" xml:space="preserve" x="449" y="396">r</text>
	<line stroke="black" stroke-opacity="1" x1="442" y1="411" x2="618" y2="411" />
	<text font-family="Helvetica" font-size="16" fill="#000000" xml:space="preserve" x="449" y="430">get_x()</text>
	<text font-family="Helvetica" font-size="16" fill="#000000" xml:space="preserve" x="449" y="461">get_y()</text>
	<text font-family="Helvetica" font-size="16" fill="#000000" xml:space="preserve" x="449" y="492">aplly_force()</text>
	<text font-family="Helvetica" font-size="16" fill="#000000" xml:space="preserve" x="449" y="523">detect_collision()</text>
</g>
<g>
	<line stroke="black" stroke-opacity="1" x1="264" y1="177" x2="264" y2="140" />
	<line stroke="black" stroke-opacity="1" x1="264" y1="134" x2="258" y2="140" />
	<line stroke="black" stroke-opacity="1" x1="264" y1="134" x2="270" y2="140" />
	<line stroke="black" stroke-opacity="1" x1="258" y1="140" x2="270" y2="140" />
</g>
<g>
	<line stroke="black" stroke-opacity="1" x1="530" y1="180" x2="358" y2="180" />
</g>
<g>
	<line stroke="black" stroke-opacity="1" x1="529" y1="249" x2="530" y2="180" />
</g>
<g>
	<line stroke="black" stroke-opacity="1" x1="105" y1="242" x2="105" y2="177" />
</g>
<g>
	<line stroke="black" stroke-opacity="1" x1="105" y1="177" x2="264" y2="177" />
</g>
<g>
	<line stroke="black" stroke-opacity="1" x1="358" y1="180" x2="358" y2="139" />
	<line stroke="black" stroke-opacity="1" x1="359" y1="134" x2="352" y2="139" />
	<line stroke="black" stroke-opacity="1" x1="359" y1="134" x2="364" y2="140" />
	<line stroke="black" stroke-opacity="1" x1="352" y1="139" x2="364" y2="140" />
</g>
</svg>
