<?xml version="1.0" encoding="UTF-8"?><svg xmlns="http://www.w3.org/2000/svg" xmlns:xlink="http://www.w3.org/1999/xlink" fill-opacity="1" color-rendering="auto" color-interpolation="auto" text-rendering="auto" stroke="black" stroke-linecap="square" width="499" stroke-miterlimit="10" shape-rendering="auto" stroke-opacity="1" fill="black" stroke-dasharray="none" font-weight="normal" stroke-width="1" height="320" font-family="'Dialog'" font-style="normal" stroke-linejoin="miter" font-size="12px" stroke-dashoffset="0" image-rendering="auto">
  <!--Generated by ySVG 2.5-->
  <defs id="genericDefs"/>
  <g>
    <defs id="defs1">
      <clipPath clipPathUnits="userSpaceOnUse" id="clipPath1">
        <path d="M0 0 L499 0 L499 320 L0 320 L0 0 Z"/>
      </clipPath>
      <clipPath clipPathUnits="userSpaceOnUse" id="clipPath2">
        <path d="M18 37 L517 37 L517 357 L18 357 L18 37 Z"/>
      </clipPath>
    </defs>
    <g fill="white" text-rendering="geometricPrecision" shape-rendering="geometricPrecision" transform="translate(-18,-37)" stroke="white">
      <rect x="18" width="499" height="320" y="37" clip-path="url(#clipPath2)" stroke="none"/>
    </g>
    <g fill="white" text-rendering="geometricPrecision" shape-rendering="geometricPrecision" transform="matrix(1,0,0,1,-18,-37)" stroke="white">
      <rect x="78" width="182" height="40" y="222" clip-path="url(#clipPath2)" stroke="none"/>
    </g>
    <g font-size="16px" stroke-linecap="butt" transform="matrix(1,0,0,1,-18,-37)" text-rendering="geometricPrecision" font-family="sans-serif" shape-rendering="geometricPrecision" stroke-miterlimit="1.45">
      <text x="154.832" xml:space="preserve" y="247.5391" clip-path="url(#clipPath2)" stroke="none">PLT</text>
      <rect x="78" y="222" clip-path="url(#clipPath2)" fill="none" width="182" height="40" stroke-width="2"/>
    </g>
    <g fill="white" text-rendering="geometricPrecision" shape-rendering="geometricPrecision" transform="matrix(1,0,0,1,-18,-37)" stroke="white">
      <rect x="78" width="91" height="40" y="262" clip-path="url(#clipPath2)" stroke="none"/>
    </g>
    <g font-size="16px" stroke-linecap="butt" transform="matrix(1,0,0,1,-18,-37)" text-rendering="geometricPrecision" font-family="sans-serif" shape-rendering="geometricPrecision" stroke-miterlimit="1.45">
      <text x="108.2461" xml:space="preserve" y="287.5391" clip-path="url(#clipPath2)" stroke="none">fact</text>
      <rect x="78" y="262" clip-path="url(#clipPath2)" fill="none" width="91" height="40" stroke-width="2"/>
    </g>
    <g fill="white" text-rendering="geometricPrecision" shape-rendering="geometricPrecision" transform="matrix(1,0,0,1,-18,-37)" stroke="white">
      <rect x="78" width="91" height="40" y="302" clip-path="url(#clipPath2)" stroke="none"/>
    </g>
    <g font-size="16px" stroke-linecap="butt" transform="matrix(1,0,0,1,-18,-37)" text-rendering="geometricPrecision" font-family="sans-serif" shape-rendering="geometricPrecision" stroke-miterlimit="1.45">
      <text x="101.8867" xml:space="preserve" y="327.5391" clip-path="url(#clipPath2)" stroke="none">printf</text>
      <rect x="78" y="302" clip-path="url(#clipPath2)" fill="none" width="91" height="40" stroke-width="2"/>
    </g>
    <g fill="rgb(255,255,153)" text-rendering="geometricPrecision" shape-rendering="geometricPrecision" transform="matrix(1,0,0,1,-18,-37)" stroke="rgb(255,255,153)">
      <rect x="169" width="91" height="40" y="262" clip-path="url(#clipPath2)" stroke="none"/>
    </g>
    <g text-rendering="geometricPrecision" stroke-miterlimit="1.45" stroke-width="2" shape-rendering="geometricPrecision" transform="matrix(1,0,0,1,-18,-37)" stroke-linecap="butt">
      <rect fill="none" x="169" width="91" height="40" y="262" clip-path="url(#clipPath2)"/>
    </g>
    <g fill="rgb(204,255,204)" text-rendering="geometricPrecision" shape-rendering="geometricPrecision" transform="matrix(1,0,0,1,-18,-37)" stroke="rgb(204,255,204)">
      <rect x="169" width="91" height="40" y="302" clip-path="url(#clipPath2)" stroke="none"/>
    </g>
    <g text-rendering="geometricPrecision" stroke-miterlimit="1.45" stroke-width="2" shape-rendering="geometricPrecision" transform="matrix(1,0,0,1,-18,-37)" stroke-linecap="butt">
      <rect fill="none" x="169" width="91" height="40" y="302" clip-path="url(#clipPath2)"/>
    </g>
    <g fill="white" text-rendering="geometricPrecision" shape-rendering="geometricPrecision" transform="matrix(1,0,0,1,-18,-37)" stroke="white">
      <rect x="316" width="182" height="104" y="238" clip-path="url(#clipPath2)" stroke="none"/>
    </g>
    <g font-size="16px" stroke-linecap="butt" transform="matrix(1,0,0,1,-18,-37)" text-rendering="geometricPrecision" font-family="sans-serif" shape-rendering="geometricPrecision" stroke-miterlimit="1.45">
      <text x="346.8164" xml:space="preserve" y="295.5391" clip-path="url(#clipPath2)" stroke="none">Dynamic linker</text>
      <rect x="316" y="238" clip-path="url(#clipPath2)" fill="none" width="182" height="104" stroke-width="2"/>
    </g>
    <g fill="white" text-rendering="geometricPrecision" shape-rendering="geometricPrecision" transform="matrix(1,0,0,1,-18,-37)" stroke="white">
      <rect x="123.5" width="91" height="40" y="52" clip-path="url(#clipPath2)" stroke="none"/>
    </g>
    <g font-size="16px" stroke-linecap="butt" transform="matrix(1,0,0,1,-18,-37)" text-rendering="geometricPrecision" font-family="sans-serif" shape-rendering="geometricPrecision" stroke-miterlimit="1.45">
      <text x="149.0117" xml:space="preserve" y="77.5391" clip-path="url(#clipPath2)" stroke="none">main</text>
      <rect x="123.5" y="52" clip-path="url(#clipPath2)" fill="none" width="91" height="40" stroke-width="2"/>
    </g>
    <g fill="white" text-rendering="geometricPrecision" shape-rendering="geometricPrecision" transform="matrix(1,0,0,1,-18,-37)" stroke="white">
      <rect x="123.5" width="91" height="68" y="92" clip-path="url(#clipPath2)" stroke="none"/>
    </g>
    <g font-size="16px" stroke-linecap="butt" transform="matrix(1,0,0,1,-18,-37)" text-rendering="geometricPrecision" font-family="sans-serif" shape-rendering="geometricPrecision" stroke-miterlimit="1.45">
      <text x="147.5039" xml:space="preserve" y="131.5391" clip-path="url(#clipPath2)" stroke="none">fact()</text>
      <rect x="123.5" y="92" clip-path="url(#clipPath2)" fill="none" width="91" height="68" stroke-width="2"/>
    </g>
    <g fill="rgb(255,255,153)" text-rendering="geometricPrecision" shape-rendering="geometricPrecision" transform="matrix(1,0,0,1,-18,-37)" stroke="rgb(255,255,153)">
      <rect x="311" width="91" height="89" y="52" clip-path="url(#clipPath2)" stroke="none"/>
    </g>
    <g font-size="16px" stroke-linecap="butt" transform="matrix(1,0,0,1,-18,-37)" text-rendering="geometricPrecision" font-family="sans-serif" shape-rendering="geometricPrecision" stroke-miterlimit="1.45">
      <text x="320.1172" xml:space="preserve" y="102.0391" clip-path="url(#clipPath2)" stroke="none">libfact.so</text>
      <rect x="311" y="52" clip-path="url(#clipPath2)" fill="none" width="91" height="89" stroke-width="2"/>
    </g>
    <g fill="rgb(204,255,204)" text-rendering="geometricPrecision" shape-rendering="geometricPrecision" transform="matrix(1,0,0,1,-18,-37)" stroke="rgb(204,255,204)">
      <rect x="411" width="91" height="89" y="52" clip-path="url(#clipPath2)" stroke="none"/>
    </g>
    <g font-size="16px" stroke-linecap="butt" transform="matrix(1,0,0,1,-18,-37)" text-rendering="geometricPrecision" font-family="sans-serif" shape-rendering="geometricPrecision" stroke-miterlimit="1.45">
      <text x="430.9727" xml:space="preserve" y="102.0391" clip-path="url(#clipPath2)" stroke="none">libc.so</text>
      <rect x="411" y="52" clip-path="url(#clipPath2)" fill="none" width="91" height="89" stroke-width="2"/>
      <path fill="none" d="M315.9642 282 L269 282" stroke-width="2" clip-path="url(#clipPath2)"/>
      <path d="M260 282 L273.5 287.625 L270.125 282 L273.5 276.375 Z" stroke-width="2" clip-path="url(#clipPath2)" stroke="none"/>
      <path fill="none" d="M315.9984 322 L269 322" stroke-width="2" clip-path="url(#clipPath2)"/>
      <path d="M260 322 L273.5 327.625 L270.125 322 L273.5 316.375 Z" stroke-width="2" clip-path="url(#clipPath2)" stroke="none"/>
      <path fill="none" d="M123.5 126 L33 126 L33 282 L69 282" stroke-width="2" clip-path="url(#clipPath2)"/>
      <path d="M78 282 L64.5 276.375 L67.875 282 L64.5 287.625 Z" stroke-width="2" clip-path="url(#clipPath2)" stroke="none"/>
      <path fill="none" d="M356.5 141 L356.5 228.9719" stroke-width="2" clip-path="url(#clipPath2)"/>
      <path d="M356.5 237.9719 L362.125 224.4719 L356.5 227.8469 L350.875 224.4719 Z" stroke-width="2" clip-path="url(#clipPath2)" stroke="none"/>
      <path fill="none" d="M456.5 141 L456.5 229.0173" stroke-width="2" clip-path="url(#clipPath2)"/>
      <path d="M456.5 238.0173 L462.125 224.5173 L456.5 227.8923 L450.875 224.5173 Z" stroke-width="2" clip-path="url(#clipPath2)" stroke="none"/>
    </g>
  </g>
</svg>
