<?xml version="1.0" encoding="UTF-8"?><svg xmlns="http://www.w3.org/2000/svg" xmlns:xlink="http://www.w3.org/1999/xlink" fill-opacity="1" color-rendering="auto" color-interpolation="auto" text-rendering="auto" stroke="black" stroke-linecap="square" width="428" stroke-miterlimit="10" shape-rendering="auto" stroke-opacity="1" fill="black" stroke-dasharray="none" font-weight="normal" stroke-width="1" height="331" font-family="'Dialog'" font-style="normal" stroke-linejoin="miter" font-size="12px" stroke-dashoffset="0" image-rendering="auto">
  <!--Generated by ySVG 2.5-->
  <defs id="genericDefs"/>
  <g>
    <defs id="defs1">
      <clipPath clipPathUnits="userSpaceOnUse" id="clipPath1">
        <path d="M0 0 L428 0 L428 331 L0 331 L0 0 Z"/>
      </clipPath>
      <clipPath clipPathUnits="userSpaceOnUse" id="clipPath2">
        <path d="M116 144 L544 144 L544 475 L116 475 L116 144 Z"/>
      </clipPath>
    </defs>
    <g fill="white" text-rendering="geometricPrecision" shape-rendering="geometricPrecision" transform="translate(-116,-144)" stroke="white">
      <rect x="116" width="428" height="331" y="144" clip-path="url(#clipPath2)" stroke="none"/>
    </g>
    <g fill="rgb(204,255,255)" text-rendering="geometricPrecision" shape-rendering="geometricPrecision" transform="matrix(1,0,0,1,-116,-144)" stroke="rgb(204,255,255)">
      <rect x="245" width="155" height="50" y="159.5" clip-path="url(#clipPath2)" stroke="none"/>
    </g>
    <g font-size="16px" stroke-linecap="butt" transform="matrix(1,0,0,1,-116,-144)" text-rendering="geometricPrecision" font-family="sans-serif" shape-rendering="geometricPrecision" stroke-miterlimit="1.45">
      <text x="276.7148" xml:space="preserve" y="190.0391" clip-path="url(#clipPath2)" stroke="none">ELF Header</text>
      <rect x="245" y="159.5" clip-path="url(#clipPath2)" fill="none" width="155" height="50" stroke-width="2"/>
    </g>
    <g fill="rgb(204,255,255)" text-rendering="geometricPrecision" shape-rendering="geometricPrecision" transform="matrix(1,0,0,1,-116,-144)" stroke="rgb(204,255,255)">
      <rect x="177" width="310" height="50" y="209.5" clip-path="url(#clipPath2)" stroke="none"/>
    </g>
    <g font-size="16px" stroke-linecap="butt" transform="matrix(1,0,0,1,-116,-144)" text-rendering="geometricPrecision" font-family="sans-serif" shape-rendering="geometricPrecision" stroke-miterlimit="1.45">
      <text x="267.2031" xml:space="preserve" y="240.0391" clip-path="url(#clipPath2)" stroke="none">Program header</text>
      <rect x="177" y="209.5" clip-path="url(#clipPath2)" fill="none" width="310" height="50" stroke-width="2"/>
    </g>
    <g fill="rgb(204,255,255)" text-rendering="geometricPrecision" shape-rendering="geometricPrecision" transform="matrix(1,0,0,1,-116,-144)" stroke="rgb(204,255,255)">
      <rect x="177" width="310" height="50" y="409.5" clip-path="url(#clipPath2)" stroke="none"/>
    </g>
    <g font-size="16px" stroke-linecap="butt" transform="matrix(1,0,0,1,-116,-144)" text-rendering="geometricPrecision" font-family="sans-serif" shape-rendering="geometricPrecision" stroke-miterlimit="1.45">
      <text x="271.5508" xml:space="preserve" y="440.0391" clip-path="url(#clipPath2)" stroke="none">Section header</text>
      <rect x="177" y="409.5" clip-path="url(#clipPath2)" fill="none" width="310" height="50" stroke-width="2"/>
    </g>
    <g fill="rgb(255,255,153)" text-rendering="geometricPrecision" shape-rendering="geometricPrecision" transform="matrix(1,0,0,1,-116,-144)" stroke="rgb(255,255,153)">
      <rect x="332" width="155" height="50" y="259.5" clip-path="url(#clipPath2)" stroke="none"/>
    </g>
    <g font-size="16px" stroke-linecap="butt" transform="matrix(1,0,0,1,-116,-144)" text-rendering="geometricPrecision" font-family="sans-serif" shape-rendering="geometricPrecision" stroke-miterlimit="1.45">
      <text x="391.0273" xml:space="preserve" y="290.0391" clip-path="url(#clipPath2)" stroke="none">.text</text>
      <rect fill="none" x="332" width="155" height="50" y="259.5" clip-path="url(#clipPath2)"/>
    </g>
    <g fill="rgb(255,255,153)" text-rendering="geometricPrecision" shape-rendering="geometricPrecision" transform="matrix(1,0,0,1,-116,-144)" stroke="rgb(255,255,153)">
      <rect x="332" width="155" height="50" y="309.5" clip-path="url(#clipPath2)" stroke="none"/>
    </g>
    <g font-size="16px" stroke-linecap="butt" transform="matrix(1,0,0,1,-116,-144)" text-rendering="geometricPrecision" font-family="sans-serif" shape-rendering="geometricPrecision" stroke-miterlimit="1.45">
      <text x="388.9375" xml:space="preserve" y="340.0391" clip-path="url(#clipPath2)" stroke="none">.data</text>
      <rect fill="none" x="332" width="155" height="50" y="309.5" clip-path="url(#clipPath2)"/>
    </g>
    <g fill="rgb(255,255,153)" text-rendering="geometricPrecision" shape-rendering="geometricPrecision" transform="matrix(1,0,0,1,-116,-144)" stroke="rgb(255,255,153)">
      <rect x="332" width="155" height="50" y="359.5" clip-path="url(#clipPath2)" stroke="none"/>
    </g>
    <g font-size="16px" stroke-linecap="butt" transform="matrix(1,0,0,1,-116,-144)" text-rendering="geometricPrecision" font-family="sans-serif" shape-rendering="geometricPrecision" stroke-miterlimit="1.45">
      <text x="380.7539" xml:space="preserve" y="390.0391" clip-path="url(#clipPath2)" stroke="none">.rodata</text>
      <rect fill="none" x="332" width="155" height="50" y="359.5" clip-path="url(#clipPath2)"/>
    </g>
    <g fill="rgb(204,255,204)" text-rendering="geometricPrecision" shape-rendering="geometricPrecision" transform="matrix(1,0,0,1,-116,-144)" stroke="rgb(204,255,204)">
      <rect x="177" width="155" height="78" y="259.5" clip-path="url(#clipPath2)" stroke="none"/>
    </g>
    <g font-size="16px" stroke-linecap="butt" transform="matrix(1,0,0,1,-116,-144)" text-rendering="geometricPrecision" font-family="sans-serif" shape-rendering="geometricPrecision" stroke-miterlimit="1.45">
      <text x="214.3203" xml:space="preserve" y="304.0391" clip-path="url(#clipPath2)" stroke="none">segment1</text>
      <rect fill="none" x="177" width="155" height="78" y="259.5" clip-path="url(#clipPath2)"/>
    </g>
    <g fill="rgb(204,255,204)" text-rendering="geometricPrecision" shape-rendering="geometricPrecision" transform="matrix(1,0,0,1,-116,-144)" stroke="rgb(204,255,204)">
      <rect x="177" width="155" height="72" y="337.5" clip-path="url(#clipPath2)" stroke="none"/>
    </g>
    <g font-size="16px" stroke-linecap="butt" transform="matrix(1,0,0,1,-116,-144)" text-rendering="geometricPrecision" font-family="sans-serif" shape-rendering="geometricPrecision" stroke-miterlimit="1.45">
      <text x="214.3203" xml:space="preserve" y="379.0391" clip-path="url(#clipPath2)" stroke="none">segment2</text>
      <rect fill="none" x="177" width="155" height="72" y="337.5" clip-path="url(#clipPath2)"/>
      <path fill="none" d="M487 434.5 L529 434.5 L529 284.5 L495 284.5" clip-path="url(#clipPath2)"/>
      <path d="M487 284.5 L499 289.5 L496 284.5 L499 279.5 Z" stroke="none" clip-path="url(#clipPath2)"/>
      <path fill="none" d="M487 434.5 L528 434.5 L528 334.5 L495 334.5" clip-path="url(#clipPath2)"/>
      <path d="M487 334.5 L499 339.5 L496 334.5 L499 329.5 Z" stroke="none" clip-path="url(#clipPath2)"/>
      <path fill="none" d="M487 434.5 L529 434.5 L529 384.5 L495 384.5" clip-path="url(#clipPath2)"/>
      <path d="M487 384.5 L499 389.5 L496 384.5 L499 379.5 Z" stroke="none" clip-path="url(#clipPath2)"/>
      <path fill="none" d="M177 234.5 L131 234.5 L131 298.5 L169 298.5" clip-path="url(#clipPath2)"/>
      <path d="M177 298.5 L165 293.5 L168 298.5 L165 303.5 Z" stroke="none" clip-path="url(#clipPath2)"/>
      <path fill="none" d="M177 234.5 L131 234.5 L131 373.5 L169 373.5" clip-path="url(#clipPath2)"/>
      <path d="M177 373.5 L165 368.5 L168 373.5 L165 378.5 Z" stroke="none" clip-path="url(#clipPath2)"/>
    </g>
  </g>
</svg>
