<?xml version="1.0" encoding="UTF-8" standalone="no"?>
<!DOCTYPE svg PUBLIC "-//W3C//DTD SVG 1.1//EN"
 "http://www.w3.org/Graphics/SVG/1.1/DTD/svg11.dtd">
<!-- Generated by graphviz version 2.36.0 (20140111.2315)
 -->
<!-- Title: fact.c.210r.reload Pages: 1 -->
<svg width="538pt" height="806pt"
 viewBox="0.00 0.00 538.19 806.00" xmlns="http://www.w3.org/2000/svg" xmlns:xlink="http://www.w3.org/1999/xlink">
<g id="graph0" class="graph" transform="scale(1 1) rotate(0) translate(4 802)">
<title>fact.c.210r.reload</title>
<polygon fill="white" stroke="none" points="-4,4 -4,-802 534.191,-802 534.191,4 -4,4"/>
<!-- fn_0_basic_block_1 -->
<g id="node1" class="node"><title>fn_0_basic_block_1</title>
<polygon fill="white" stroke="black" points="420.191,-36 376.89,-18 420.191,-3.55271e-15 463.492,-18 420.191,-36"/>
<polyline fill="none" stroke="black" points="387.971,-22.6062 387.971,-13.3938 "/>
<polyline fill="none" stroke="black" points="409.11,-4.6062 431.272,-4.6062 "/>
<polyline fill="none" stroke="black" points="452.412,-13.3938 452.412,-22.6062 "/>
<polyline fill="none" stroke="black" points="431.272,-31.3938 409.11,-31.3938 "/>
<text text-anchor="middle" x="420.191" y="-14.3" font-family="Times,serif" font-size="14.00">EXIT</text>
</g>
<!-- fn_0_basic_block_2 -->
<g id="node2" class="node"><title>fn_0_basic_block_2</title>
<polygon fill="lightgrey" stroke="black" points="59.6912,-565 59.6912,-725 274.691,-725 274.691,-565 59.6912,-565"/>
<text text-anchor="start" x="67.6912" y="-709.8" font-family="Times,serif" font-size="14.00">9: NOTE_INSN_BASIC_BLOCK 2</text>
<polyline fill="none" stroke="black" points="59.6912,-702 274.691,-702 "/>
<text text-anchor="start" x="67.6912" y="-686.8" font-family="Times,serif" font-size="14.00">4: di:SI=di:SI</text>
<text text-anchor="start" x="67.6912" y="-671.8" font-family="Times,serif" font-size="14.00"> &#160;&#160;&#160;&#160;&#160;REG_DEAD di:SI</text>
<polyline fill="none" stroke="black" points="59.6912,-664 274.691,-664 "/>
<text text-anchor="start" x="67.6912" y="-648.8" font-family="Times,serif" font-size="14.00">5: NOTE_INSN_FUNCTION_BEG</text>
<polyline fill="none" stroke="black" points="59.6912,-641 274.691,-641 "/>
<text text-anchor="start" x="67.6912" y="-625.8" font-family="Times,serif" font-size="14.00">11: flags:CC=cmp(di:SI,0x1)</text>
<polyline fill="none" stroke="black" points="59.6912,-618 274.691,-618 "/>
<text text-anchor="start" x="67.6912" y="-602.8" font-family="Times,serif" font-size="14.00">12: pc={(leu(flags:CC,0))?L35:pc}</text>
<text text-anchor="start" x="67.6912" y="-587.8" font-family="Times,serif" font-size="14.00"> &#160;&#160;&#160;&#160;&#160;REG_DEAD flags:CC</text>
<text text-anchor="start" x="67.6912" y="-572.8" font-family="Times,serif" font-size="14.00"> &#160;&#160;&#160;&#160;&#160;REG_BR_PROB 0x384</text>
</g>
<!-- fn_0_basic_block_3 -->
<g id="node3" class="node"><title>fn_0_basic_block_3</title>
<polygon fill="lightgrey" stroke="black" points="56.6912,-466.5 56.6912,-527.5 277.691,-527.5 277.691,-466.5 56.6912,-466.5"/>
<text text-anchor="start" x="64.6912" y="-512.3" font-family="Times,serif" font-size="14.00">13: NOTE_INSN_BASIC_BLOCK 3</text>
<polyline fill="none" stroke="black" points="56.6912,-504.5 277.691,-504.5 "/>
<text text-anchor="start" x="64.6912" y="-489.3" font-family="Times,serif" font-size="14.00">7: ax:SI=0x1</text>
<text text-anchor="start" x="64.6912" y="-474.3" font-family="Times,serif" font-size="14.00"> &#160;&#160;&#160;&#160;&#160;REG_EQUAL 0x1</text>
</g>
<!-- fn_0_basic_block_2&#45;&gt;fn_0_basic_block_3 -->
<g id="edge3" class="edge"><title>fn_0_basic_block_2:s&#45;&gt;fn_0_basic_block_3:n</title>
<path fill="none" stroke="blue" stroke-width="2" d="M167.191,-564C167.191,-552 167.191,-546.75 167.191,-538.125"/>
<polygon fill="blue" stroke="blue" stroke-width="2" points="170.691,-538 167.191,-528 163.691,-538 170.691,-538"/>
</g>
<!-- fn_0_basic_block_6 -->
<g id="node6" class="node"><title>fn_0_basic_block_6</title>
<polygon fill="lightgrey" stroke="black" points="309.691,-288.5 309.691,-357.5 530.691,-357.5 530.691,-288.5 309.691,-288.5"/>
<text text-anchor="start" x="317.691" y="-342.3" font-family="Times,serif" font-size="14.00">35: L35:</text>
<polyline fill="none" stroke="black" points="309.691,-334.5 530.691,-334.5 "/>
<text text-anchor="start" x="317.691" y="-319.3" font-family="Times,serif" font-size="14.00">34: NOTE_INSN_BASIC_BLOCK 6</text>
<polyline fill="none" stroke="black" points="309.691,-311.5 530.691,-311.5 "/>
<text text-anchor="start" x="317.691" y="-296.3" font-family="Times,serif" font-size="14.00">8: ax:SI=0x1</text>
</g>
<!-- fn_0_basic_block_2&#45;&gt;fn_0_basic_block_6 -->
<g id="edge2" class="edge"><title>fn_0_basic_block_2:s&#45;&gt;fn_0_basic_block_6:n</title>
<path fill="none" stroke="black" stroke-width="2" d="M167.191,-564C167.191,-508.744 240.496,-559.067 286.191,-528 362.599,-476.053 416.204,-456.293 419.978,-369.096"/>
<polygon fill="black" stroke="black" stroke-width="2" points="423.479,-369.072 420.191,-359 416.481,-368.924 423.479,-369.072"/>
</g>
<!-- fn_0_basic_block_4 -->
<g id="node4" class="node"><title>fn_0_basic_block_4</title>
<polygon fill="lightgrey" stroke="black" points="42.6912,-216.5 42.6912,-429.5 291.691,-429.5 291.691,-216.5 42.6912,-216.5"/>
<text text-anchor="start" x="50.6912" y="-414.3" font-family="Times,serif" font-size="14.00">20: L20:</text>
<polyline fill="none" stroke="black" points="42.6912,-406.5 291.691,-406.5 "/>
<text text-anchor="start" x="50.6912" y="-391.3" font-family="Times,serif" font-size="14.00">14: NOTE_INSN_BASIC_BLOCK 4</text>
<polyline fill="none" stroke="black" points="42.6912,-383.5 291.691,-383.5 "/>
<text text-anchor="start" x="50.6912" y="-368.3" font-family="Times,serif" font-size="14.00">15: {dx:SI=di:SI&#45;0x1;clobber flags:CC;}</text>
<text text-anchor="start" x="50.6912" y="-353.3" font-family="Times,serif" font-size="14.00"> &#160;&#160;&#160;&#160;&#160;REG_UNUSED flags:CC</text>
<polyline fill="none" stroke="black" points="42.6912,-345.5 291.691,-345.5 "/>
<text text-anchor="start" x="50.6912" y="-330.3" font-family="Times,serif" font-size="14.00">16: {ax:SI=ax:SI*di:SI;clobber flags:CC;}</text>
<text text-anchor="start" x="50.6912" y="-315.3" font-family="Times,serif" font-size="14.00"> &#160;&#160;&#160;&#160;&#160;REG_DEAD di:SI</text>
<text text-anchor="start" x="50.6912" y="-300.3" font-family="Times,serif" font-size="14.00"> &#160;&#160;&#160;&#160;&#160;REG_UNUSED flags:CC</text>
<polyline fill="none" stroke="black" points="42.6912,-292.5 291.691,-292.5 "/>
<text text-anchor="start" x="50.6912" y="-277.3" font-family="Times,serif" font-size="14.00">17: flags:CCZ=cmp(dx:SI,0x1)</text>
<polyline fill="none" stroke="black" points="42.6912,-269.5 291.691,-269.5 "/>
<text text-anchor="start" x="50.6912" y="-254.3" font-family="Times,serif" font-size="14.00">18: pc={(flags:CCZ==0)?L23:pc}</text>
<text text-anchor="start" x="50.6912" y="-239.3" font-family="Times,serif" font-size="14.00"> &#160;&#160;&#160;&#160;&#160;REG_DEAD flags:CCZ</text>
<text text-anchor="start" x="50.6912" y="-224.3" font-family="Times,serif" font-size="14.00"> &#160;&#160;&#160;&#160;&#160;REG_BR_PROB 0x384</text>
</g>
<!-- fn_0_basic_block_3&#45;&gt;fn_0_basic_block_4 -->
<g id="edge4" class="edge"><title>fn_0_basic_block_3:s&#45;&gt;fn_0_basic_block_4:n</title>
<path fill="none" stroke="blue" stroke-width="2" d="M167.191,-466C167.191,-454 167.191,-448.75 167.191,-440.125"/>
<polygon fill="blue" stroke="blue" stroke-width="2" points="170.691,-440 167.191,-430 163.691,-440 170.691,-440"/>
</g>
<!-- fn_0_basic_block_5 -->
<g id="node5" class="node"><title>fn_0_basic_block_5</title>
<polygon fill="lightgrey" stroke="black" points="56.6912,-84 56.6912,-168 277.691,-168 277.691,-84 56.6912,-84"/>
<text text-anchor="start" x="64.6912" y="-152.8" font-family="Times,serif" font-size="14.00">19: NOTE_INSN_BASIC_BLOCK 5</text>
<polyline fill="none" stroke="black" points="56.6912,-145 277.691,-145 "/>
<text text-anchor="start" x="64.6912" y="-129.8" font-family="Times,serif" font-size="14.00">6: di:SI=dx:SI</text>
<text text-anchor="start" x="64.6912" y="-114.8" font-family="Times,serif" font-size="14.00"> &#160;&#160;&#160;&#160;&#160;REG_DEAD dx:SI</text>
<polyline fill="none" stroke="black" points="56.6912,-107 277.691,-107 "/>
<text text-anchor="start" x="64.6912" y="-91.8" font-family="Times,serif" font-size="14.00">44: pc=L20</text>
</g>
<!-- fn_0_basic_block_4&#45;&gt;fn_0_basic_block_5 -->
<g id="edge6" class="edge"><title>fn_0_basic_block_4:s&#45;&gt;fn_0_basic_block_5:n</title>
<path fill="none" stroke="blue" stroke-width="2" d="M167.191,-216C167.191,-199.028 167.191,-192.398 167.191,-179.304"/>
<polygon fill="blue" stroke="blue" stroke-width="2" points="170.691,-179 167.191,-169 163.691,-179 170.691,-179"/>
</g>
<!-- fn_0_basic_block_7 -->
<g id="node7" class="node"><title>fn_0_basic_block_7</title>
<polygon fill="lightgrey" stroke="black" points="309.691,-72.5 309.691,-179.5 530.691,-179.5 530.691,-72.5 309.691,-72.5"/>
<text text-anchor="start" x="317.691" y="-164.3" font-family="Times,serif" font-size="14.00">23: L23:</text>
<polyline fill="none" stroke="black" points="309.691,-156.5 530.691,-156.5 "/>
<text text-anchor="start" x="317.691" y="-141.3" font-family="Times,serif" font-size="14.00">24: NOTE_INSN_BASIC_BLOCK 7</text>
<polyline fill="none" stroke="black" points="309.691,-133.5 530.691,-133.5 "/>
<text text-anchor="start" x="317.691" y="-118.3" font-family="Times,serif" font-size="14.00">29: ax:SI=ax:SI</text>
<text text-anchor="start" x="317.691" y="-103.3" font-family="Times,serif" font-size="14.00"> &#160;&#160;&#160;&#160;&#160;REG_DEAD ax:SI</text>
<polyline fill="none" stroke="black" points="309.691,-95.5 530.691,-95.5 "/>
<text text-anchor="start" x="317.691" y="-80.3" font-family="Times,serif" font-size="14.00">32: use ax:SI</text>
</g>
<!-- fn_0_basic_block_4&#45;&gt;fn_0_basic_block_7 -->
<g id="edge5" class="edge"><title>fn_0_basic_block_4:s&#45;&gt;fn_0_basic_block_7:n</title>
<path fill="none" stroke="black" stroke-width="2" d="M167.191,-216C167.191,-162.983 387.705,-227.078 416.992,-189.614"/>
<polygon fill="black" stroke="black" stroke-width="2" points="420.355,-190.594 420.191,-180 413.713,-188.384 420.355,-190.594"/>
</g>
<!-- fn_0_basic_block_5&#45;&gt;fn_0_basic_block_4 -->
<g id="edge7" class="edge"><title>fn_0_basic_block_5:s&#45;&gt;fn_0_basic_block_4:n</title>
<path fill="none" stroke="blue" stroke-width="2" stroke-dasharray="1,5" d="M167.191,-83C167.191,-58.5545 259.091,-67.569 277.191,-84 291.435,-96.9308 304.74,-416.342 291.191,-430 283.118,-438.139 202.637,-442.965 175.828,-436.42"/>
<polygon fill="blue" stroke="blue" stroke-width="2" points="177.522,-433.351 167.191,-431 173.801,-439.28 177.522,-433.351"/>
</g>
<!-- fn_0_basic_block_6&#45;&gt;fn_0_basic_block_7 -->
<g id="edge8" class="edge"><title>fn_0_basic_block_6:s&#45;&gt;fn_0_basic_block_7:n</title>
<path fill="none" stroke="blue" stroke-width="2" d="M420.191,-287C420.191,-242.974 420.191,-229.517 420.191,-190.028"/>
<polygon fill="blue" stroke="blue" stroke-width="2" points="423.691,-190 420.191,-180 416.691,-190 423.691,-190"/>
</g>
<!-- fn_0_basic_block_7&#45;&gt;fn_0_basic_block_1 -->
<g id="edge9" class="edge"><title>fn_0_basic_block_7:s&#45;&gt;fn_0_basic_block_1:n</title>
<path fill="none" stroke="blue" stroke-width="2" d="M420.191,-72C420.191,-60 420.191,-54.75 420.191,-46.125"/>
<polygon fill="blue" stroke="blue" stroke-width="2" points="423.691,-46 420.191,-36 416.691,-46 423.691,-46"/>
</g>
<!-- fn_0_basic_block_0 -->
<g id="node8" class="node"><title>fn_0_basic_block_0</title>
<polygon fill="white" stroke="black" points="167.191,-798 110.709,-780 167.191,-762 223.673,-780 167.191,-798"/>
<polyline fill="none" stroke="black" points="122.143,-783.644 122.143,-776.356 "/>
<polyline fill="none" stroke="black" points="155.758,-765.644 178.625,-765.644 "/>
<polyline fill="none" stroke="black" points="212.24,-776.356 212.24,-783.644 "/>
<polyline fill="none" stroke="black" points="178.625,-794.356 155.758,-794.356 "/>
<text text-anchor="middle" x="167.191" y="-776.3" font-family="Times,serif" font-size="14.00">ENTRY</text>
</g>
<!-- fn_0_basic_block_0&#45;&gt;fn_0_basic_block_1 -->
<!-- fn_0_basic_block_0&#45;&gt;fn_0_basic_block_2 -->
<g id="edge1" class="edge"><title>fn_0_basic_block_0:s&#45;&gt;fn_0_basic_block_2:n</title>
<path fill="none" stroke="blue" stroke-width="2" d="M167.191,-762C167.191,-750 167.191,-744.75 167.191,-736.125"/>
<polygon fill="blue" stroke="blue" stroke-width="2" points="170.691,-736 167.191,-726 163.691,-736 170.691,-736"/>
</g>
</g>
</svg>
