<?xml version="1.0" encoding="UTF-8" standalone="no"?>
<!DOCTYPE svg PUBLIC "-//W3C//DTD SVG 1.1//EN"
 "http://www.w3.org/Graphics/SVG/1.1/DTD/svg11.dtd">
<!-- Generated by graphviz version 2.36.0 (20140111.2315)
 -->
<!-- Title: fact.c.279r.stack Pages: 1 -->
<svg width="383pt" height="755pt"
 viewBox="0.00 0.00 383.00 755.00" xmlns="http://www.w3.org/2000/svg" xmlns:xlink="http://www.w3.org/1999/xlink">
<g id="graph0" class="graph" transform="scale(1 1) rotate(0) translate(4 751)">
<title>fact.c.279r.stack</title>
<polygon fill="white" stroke="none" points="-4,4 -4,-751 379,-751 379,4 -4,4"/>
<g id="clust1" class="cluster"><title>cluster_fact</title>
<polygon fill="none" stroke="black" stroke-dasharray="5,2" points="8,-8 8,-739 367,-739 367,-8 8,-8"/>
<text text-anchor="middle" x="187.5" y="-723.8" font-family="Times,serif" font-size="14.00">fact ()</text>
</g>
<!-- fn_0_basic_block_0 -->
<g id="node1" class="node"><title>fn_0_basic_block_0</title>
<polygon fill="white" stroke="black" points="141,-708 84.5183,-690 141,-672 197.482,-690 141,-708"/>
<polyline fill="none" stroke="black" points="95.9517,-693.644 95.9517,-686.356 "/>
<polyline fill="none" stroke="black" points="129.567,-675.644 152.433,-675.644 "/>
<polyline fill="none" stroke="black" points="186.048,-686.356 186.048,-693.644 "/>
<polyline fill="none" stroke="black" points="152.433,-704.356 129.567,-704.356 "/>
<text text-anchor="middle" x="141" y="-686.3" font-family="Times,serif" font-size="14.00">ENTRY</text>
</g>
<!-- fn_0_basic_block_2 -->
<g id="node2" class="node"><title>fn_0_basic_block_2</title>
<polygon fill="lightgrey" stroke="black" points="36.5,-527 36.5,-619 245.5,-619 245.5,-527 36.5,-527"/>
<text text-anchor="middle" x="141" y="-603.8" font-family="Times,serif" font-size="14.00">FREQ:900 </text>
<polyline fill="none" stroke="black" points="36.5,-596 245.5,-596 "/>
<text text-anchor="start" x="44.5" y="-580.8" font-family="Times,serif" font-size="14.00">10: flags:CC=cmp(di:SI,0x1)</text>
<polyline fill="none" stroke="black" points="36.5,-573 245.5,-573 "/>
<text text-anchor="start" x="44.5" y="-557.8" font-family="Times,serif" font-size="14.00">7: ax:SI=0x1</text>
<polyline fill="none" stroke="black" points="36.5,-550 245.5,-550 "/>
<text text-anchor="start" x="44.5" y="-534.8" font-family="Times,serif" font-size="14.00">11: pc={(leu(flags:CC,0))?L32:pc}</text>
</g>
<!-- fn_0_basic_block_0&#45;&gt;fn_0_basic_block_2 -->
<g id="edge1" class="edge"><title>fn_0_basic_block_0:s&#45;&gt;fn_0_basic_block_2:n</title>
<path fill="none" stroke="blue" stroke-width="2" d="M141,-672C141,-652.681 141,-645.473 141,-630.128"/>
<polygon fill="blue" stroke="blue" stroke-width="2" points="144.5,-630 141,-620 137.5,-630 144.5,-630"/>
<text text-anchor="middle" x="162" y="-642.3" font-family="Times,serif" font-size="14.00">[100%]</text>
</g>
<!-- fn_0_basic_block_1 -->
<g id="node6" class="node"><title>fn_0_basic_block_1</title>
<polygon fill="white" stroke="black" points="295,-52 251.699,-34 295,-16 338.301,-34 295,-52"/>
<polyline fill="none" stroke="black" points="262.78,-38.6062 262.78,-29.3938 "/>
<polyline fill="none" stroke="black" points="283.919,-20.6062 306.081,-20.6062 "/>
<polyline fill="none" stroke="black" points="327.22,-29.3938 327.22,-38.6062 "/>
<polyline fill="none" stroke="black" points="306.081,-47.3938 283.919,-47.3938 "/>
<text text-anchor="middle" x="295" y="-30.3" font-family="Times,serif" font-size="14.00">EXIT</text>
</g>
<!-- fn_0_basic_block_0&#45;&gt;fn_0_basic_block_1 -->
<!-- fn_0_basic_block_3 -->
<g id="node3" class="node"><title>fn_0_basic_block_3</title>
<polygon fill="lightgrey" stroke="black" points="16.5,-305 16.5,-473 265.5,-473 265.5,-305 16.5,-305"/>
<text text-anchor="middle" x="141" y="-457.8" font-family="Times,serif" font-size="14.00">FREQ:9100 </text>
<polyline fill="none" stroke="black" points="16.5,-450 265.5,-450 "/>
<text text-anchor="start" x="24.5" y="-434.8" font-family="Times,serif" font-size="14.00">17: L17:</text>
<polyline fill="none" stroke="black" points="16.5,-427 265.5,-427 "/>
<text text-anchor="start" x="24.5" y="-411.8" font-family="Times,serif" font-size="14.00">15: {ax:SI=ax:SI*di:SI;clobber flags:CC;}</text>
<text text-anchor="start" x="24.5" y="-396.8" font-family="Times,serif" font-size="14.00"> &#160;&#160;&#160;&#160;&#160;REG_UNUSED flags:CC</text>
<polyline fill="none" stroke="black" points="16.5,-389 265.5,-389 "/>
<text text-anchor="start" x="24.5" y="-373.8" font-family="Times,serif" font-size="14.00">50: {di:SI=di:SI&#45;0x1;clobber flags:CC;}</text>
<text text-anchor="start" x="24.5" y="-358.8" font-family="Times,serif" font-size="14.00"> &#160;&#160;&#160;&#160;&#160;REG_UNUSED flags:CC</text>
<polyline fill="none" stroke="black" points="16.5,-351 265.5,-351 "/>
<text text-anchor="start" x="24.5" y="-335.8" font-family="Times,serif" font-size="14.00">18: flags:CCZ=cmp(di:SI,0x1)</text>
<polyline fill="none" stroke="black" points="16.5,-328 265.5,-328 "/>
<text text-anchor="start" x="24.5" y="-312.8" font-family="Times,serif" font-size="14.00">19: pc={(flags:CCZ!=0)?L17:pc}</text>
</g>
<!-- fn_0_basic_block_2&#45;&gt;fn_0_basic_block_3 -->
<g id="edge3" class="edge"><title>fn_0_basic_block_2:s&#45;&gt;fn_0_basic_block_3:n</title>
<path fill="none" stroke="blue" stroke-width="2" d="M141,-526C141,-506.681 141,-499.473 141,-484.128"/>
<polygon fill="blue" stroke="blue" stroke-width="2" points="144.5,-484 141,-474 137.5,-484 144.5,-484"/>
<text text-anchor="middle" x="158.5" y="-496.3" font-family="Times,serif" font-size="14.00">[91%]</text>
</g>
<!-- fn_0_basic_block_5 -->
<g id="node5" class="node"><title>fn_0_basic_block_5</title>
<polygon fill="lightgrey" stroke="black" points="238.5,-193 238.5,-285 351.5,-285 351.5,-193 238.5,-193"/>
<text text-anchor="middle" x="295" y="-269.8" font-family="Times,serif" font-size="14.00">FREQ:81</text>
<polyline fill="none" stroke="black" points="238.5,-262 351.5,-262 "/>
<text text-anchor="start" x="246.5" y="-246.8" font-family="Times,serif" font-size="14.00">32: L32:</text>
<polyline fill="none" stroke="black" points="238.5,-239 351.5,-239 "/>
<text text-anchor="start" x="246.5" y="-223.8" font-family="Times,serif" font-size="14.00">26: use ax:SI</text>
<polyline fill="none" stroke="black" points="238.5,-216 351.5,-216 "/>
<text text-anchor="start" x="246.5" y="-200.8" font-family="Times,serif" font-size="14.00">47: simple_return</text>
</g>
<!-- fn_0_basic_block_2&#45;&gt;fn_0_basic_block_5 -->
<g id="edge2" class="edge"><title>fn_0_basic_block_2:s&#45;&gt;fn_0_basic_block_5:n</title>
<path fill="none" stroke="black" stroke-width="2" d="M141,-526C141,-504.541 314.029,-491.095 327,-474 349.835,-443.905 346.072,-336.61 327,-304 321.336,-294.316 308.335,-297.152 300.763,-294.568"/>
<polygon fill="black" stroke="black" stroke-width="2" points="303.485,-292.345 295,-286 297.676,-296.251 303.485,-292.345"/>
<text text-anchor="middle" x="277" y="-496.3" font-family="Times,serif" font-size="14.00">[9%]</text>
</g>
<!-- fn_0_basic_block_3&#45;&gt;fn_0_basic_block_3 -->
<g id="edge5" class="edge"><title>fn_0_basic_block_3:s&#45;&gt;fn_0_basic_block_3:n</title>
<path fill="none" stroke="blue" stroke-width="2" stroke-dasharray="1,5" d="M141,-305C188.333,-277.5 283,-277.5 283,-389 283,-493.749 199.45,-500.091 150.087,-477.674"/>
<polygon fill="blue" stroke="blue" stroke-width="2" points="151.494,-474.462 141,-473 148.292,-480.687 151.494,-474.462"/>
<text text-anchor="middle" x="300.5" y="-385.3" font-family="Times,serif" font-size="14.00">[91%]</text>
</g>
<!-- fn_0_basic_block_4 -->
<g id="node4" class="node"><title>fn_0_basic_block_4</title>
<polygon fill="lightgrey" stroke="black" points="84.5,-104.5 84.5,-173.5 197.5,-173.5 197.5,-104.5 84.5,-104.5"/>
<text text-anchor="middle" x="141" y="-158.3" font-family="Times,serif" font-size="14.00">FREQ:819 </text>
<polyline fill="none" stroke="black" points="84.5,-150.5 197.5,-150.5 "/>
<text text-anchor="start" x="92.5" y="-135.3" font-family="Times,serif" font-size="14.00">44: use ax:SI</text>
<polyline fill="none" stroke="black" points="84.5,-127.5 197.5,-127.5 "/>
<text text-anchor="start" x="92.5" y="-112.3" font-family="Times,serif" font-size="14.00">45: simple_return</text>
</g>
<!-- fn_0_basic_block_3&#45;&gt;fn_0_basic_block_4 -->
<g id="edge4" class="edge"><title>fn_0_basic_block_3:s&#45;&gt;fn_0_basic_block_4:n</title>
<path fill="none" stroke="blue" stroke-width="2" d="M141,-304C141,-249.72 141,-233.686 141,-184.037"/>
<polygon fill="blue" stroke="blue" stroke-width="2" points="144.5,-184 141,-174 137.5,-184 144.5,-184"/>
<text text-anchor="middle" x="155" y="-235.3" font-family="Times,serif" font-size="14.00">[9%]</text>
</g>
<!-- fn_0_basic_block_4&#45;&gt;fn_0_basic_block_1 -->
<g id="edge6" class="edge"><title>fn_0_basic_block_4:s&#45;&gt;fn_0_basic_block_1:n</title>
<path fill="none" stroke="black" stroke-width="2" d="M141,-104C141,-96.275 253.701,-70.3205 286.279,-57.326"/>
<polygon fill="black" stroke="black" stroke-width="2" points="288.29,-60.1991 295,-52 284.641,-54.2251 288.29,-60.1991"/>
<text text-anchor="middle" x="266" y="-74.3" font-family="Times,serif" font-size="14.00">[100%]</text>
</g>
<!-- fn_0_basic_block_5&#45;&gt;fn_0_basic_block_1 -->
<g id="edge7" class="edge"><title>fn_0_basic_block_5:s&#45;&gt;fn_0_basic_block_1:n</title>
<path fill="none" stroke="black" stroke-width="2" d="M295,-192C295,-133.302 295,-116.134 295,-62.1407"/>
<polygon fill="black" stroke="black" stroke-width="2" points="298.5,-62 295,-52 291.5,-62 298.5,-62"/>
<text text-anchor="middle" x="316" y="-135.3" font-family="Times,serif" font-size="14.00">[100%]</text>
</g>
</g>
</svg>
