<?xml version="1.0" encoding="UTF-8" standalone="no"?>
<!DOCTYPE svg PUBLIC "-//W3C//DTD SVG 1.1//EN"
 "http://www.w3.org/Graphics/SVG/1.1/DTD/svg11.dtd">
<!-- Generated by graphviz version 2.36.0 (20140111.2315)
 -->
<!-- Title: fact.c.166r.expand Pages: 1 -->
<svg width="583pt" height="713pt"
 viewBox="0.00 0.00 582.80 713.00" xmlns="http://www.w3.org/2000/svg" xmlns:xlink="http://www.w3.org/1999/xlink">
<g id="graph0" class="graph" transform="scale(1 1) rotate(0) translate(4 709)">
<title>fact.c.166r.expand</title>
<polygon fill="white" stroke="none" points="-4,4 -4,-709 578.797,-709 578.797,4 -4,4"/>
<g id="clust2" class="cluster"><title>cluster_0_1</title>
<polygon fill="#e0e0e0" stroke="darkgreen" stroke-width="2" points="274.641,-87 274.641,-409 558.641,-409 558.641,-87 274.641,-87"/>
<text text-anchor="middle" x="300.141" y="-393.8" font-family="Times,serif" font-size="14.00">loop 1</text>
</g>
<!-- fn_0_basic_block_5 -->
<g id="node1" class="node"><title>fn_0_basic_block_5</title>
<polygon fill="lightgrey" stroke="black" points="283.141,-224.5 283.141,-377.5 550.141,-377.5 550.141,-224.5 283.141,-224.5"/>
<text text-anchor="start" x="291.141" y="-362.3" font-family="Times,serif" font-size="14.00">20: L20:</text>
<polyline fill="none" stroke="black" points="283.141,-354.5 550.141,-354.5 "/>
<text text-anchor="start" x="291.141" y="-339.3" font-family="Times,serif" font-size="14.00">14: NOTE_INSN_BASIC_BLOCK 5</text>
<polyline fill="none" stroke="black" points="283.141,-331.5 550.141,-331.5 "/>
<text text-anchor="start" x="291.141" y="-316.3" font-family="Times,serif" font-size="14.00">15: {r62:SI=r64:SI&#45;0x1;clobber flags:CC;}</text>
<polyline fill="none" stroke="black" points="283.141,-308.5 550.141,-308.5 "/>
<text text-anchor="start" x="291.141" y="-293.3" font-family="Times,serif" font-size="14.00">16: {r61:SI=r61:SI*r64:SI;clobber flags:CC;}</text>
<polyline fill="none" stroke="black" points="283.141,-285.5 550.141,-285.5 "/>
<text text-anchor="start" x="291.141" y="-270.3" font-family="Times,serif" font-size="14.00">17: flags:CCZ=cmp(r62:SI,0x1)</text>
<polyline fill="none" stroke="black" points="283.141,-262.5 550.141,-262.5 "/>
<text text-anchor="start" x="291.141" y="-247.3" font-family="Times,serif" font-size="14.00">18: pc={(flags:CCZ==0)?L23:pc}</text>
<text text-anchor="start" x="291.141" y="-232.3" font-family="Times,serif" font-size="14.00"> &#160;&#160;&#160;&#160;&#160;REG_BR_PROB 0x384</text>
</g>
<!-- fn_0_basic_block_6 -->
<g id="node2" class="node"><title>fn_0_basic_block_6</title>
<polygon fill="lightgrey" stroke="black" points="306.141,-95.5 306.141,-164.5 527.141,-164.5 527.141,-95.5 306.141,-95.5"/>
<text text-anchor="start" x="314.141" y="-149.3" font-family="Times,serif" font-size="14.00">19: NOTE_INSN_BASIC_BLOCK 6</text>
<polyline fill="none" stroke="black" points="306.141,-141.5 527.141,-141.5 "/>
<text text-anchor="start" x="314.141" y="-126.3" font-family="Times,serif" font-size="14.00">6: r64:SI=r62:SI</text>
<polyline fill="none" stroke="black" points="306.141,-118.5 527.141,-118.5 "/>
<text text-anchor="start" x="314.141" y="-103.3" font-family="Times,serif" font-size="14.00">21: pc=L20</text>
</g>
<!-- fn_0_basic_block_5&#45;&gt;fn_0_basic_block_6 -->
<g id="edge6" class="edge"><title>fn_0_basic_block_5:s&#45;&gt;fn_0_basic_block_6:n</title>
<path fill="none" stroke="blue" stroke-width="2" d="M416.641,-224C416.641,-202.049 416.641,-194.117 416.641,-176.328"/>
<polygon fill="blue" stroke="blue" stroke-width="2" points="420.141,-176 416.641,-166 413.141,-176 420.141,-176"/>
</g>
<!-- fn_0_basic_block_8 -->
<g id="node8" class="node"><title>fn_0_basic_block_8</title>
<polygon fill="lightgrey" stroke="black" points="44.1407,-72.5 44.1407,-187.5 265.141,-187.5 265.141,-72.5 44.1407,-72.5"/>
<text text-anchor="start" x="52.1407" y="-172.3" font-family="Times,serif" font-size="14.00">23: L23:</text>
<polyline fill="none" stroke="black" points="44.1407,-164.5 265.141,-164.5 "/>
<text text-anchor="start" x="52.1407" y="-149.3" font-family="Times,serif" font-size="14.00">24: NOTE_INSN_BASIC_BLOCK 8</text>
<polyline fill="none" stroke="black" points="44.1407,-141.5 265.141,-141.5 "/>
<text text-anchor="start" x="52.1407" y="-126.3" font-family="Times,serif" font-size="14.00">25: r63:SI=r61:SI</text>
<polyline fill="none" stroke="black" points="44.1407,-118.5 265.141,-118.5 "/>
<text text-anchor="start" x="52.1407" y="-103.3" font-family="Times,serif" font-size="14.00">29: ax:SI=r63:SI</text>
<polyline fill="none" stroke="black" points="44.1407,-95.5 265.141,-95.5 "/>
<text text-anchor="start" x="52.1407" y="-80.3" font-family="Times,serif" font-size="14.00">32: use ax:SI</text>
</g>
<!-- fn_0_basic_block_5&#45;&gt;fn_0_basic_block_8 -->
<g id="edge5" class="edge"><title>fn_0_basic_block_5:s&#45;&gt;fn_0_basic_block_8:n</title>
<path fill="none" stroke="black" stroke-width="2" d="M416.641,-224C416.641,-169.133 188.282,-236.559 157.953,-197.934"/>
<polygon fill="black" stroke="black" stroke-width="2" points="161.124,-196.379 154.641,-188 154.484,-198.594 161.124,-196.379"/>
</g>
<!-- fn_0_basic_block_6&#45;&gt;fn_0_basic_block_5 -->
<g id="edge7" class="edge"><title>fn_0_basic_block_6:s&#45;&gt;fn_0_basic_block_5:n</title>
<path fill="none" stroke="blue" stroke-width="2" stroke-dasharray="1,5" d="M416.641,-94C416.641,-69.5545 507.971,-79.2196 526.641,-95 574.829,-135.731 594.088,-333.217 549.641,-378 540.898,-386.809 453.03,-391.951 425.11,-384.617"/>
<polygon fill="blue" stroke="blue" stroke-width="2" points="426.909,-381.611 416.641,-379 423.04,-387.444 426.909,-381.611"/>
</g>
<!-- fn_0_basic_block_0 -->
<g id="node3" class="node"><title>fn_0_basic_block_0</title>
<polygon fill="white" stroke="black" points="416.641,-705 360.159,-687 416.641,-669 473.122,-687 416.641,-705"/>
<polyline fill="none" stroke="black" points="371.592,-690.644 371.592,-683.356 "/>
<polyline fill="none" stroke="black" points="405.207,-672.644 428.074,-672.644 "/>
<polyline fill="none" stroke="black" points="461.689,-683.356 461.689,-690.644 "/>
<polyline fill="none" stroke="black" points="428.074,-701.356 405.207,-701.356 "/>
<text text-anchor="middle" x="416.641" y="-683.3" font-family="Times,serif" font-size="14.00">ENTRY</text>
</g>
<!-- fn_0_basic_block_1 -->
<g id="node4" class="node"><title>fn_0_basic_block_1</title>
<polygon fill="white" stroke="black" points="154.641,-36 111.34,-18 154.641,-3.55271e-15 197.942,-18 154.641,-36"/>
<polyline fill="none" stroke="black" points="122.42,-22.6062 122.42,-13.3938 "/>
<polyline fill="none" stroke="black" points="143.56,-4.6062 165.721,-4.6062 "/>
<polyline fill="none" stroke="black" points="186.861,-13.3938 186.861,-22.6062 "/>
<polyline fill="none" stroke="black" points="165.721,-31.3938 143.56,-31.3938 "/>
<text text-anchor="middle" x="154.641" y="-14.3" font-family="Times,serif" font-size="14.00">EXIT</text>
</g>
<!-- fn_0_basic_block_0&#45;&gt;fn_0_basic_block_1 -->
<!-- fn_0_basic_block_2 -->
<g id="node5" class="node"><title>fn_0_basic_block_2</title>
<polygon fill="lightgrey" stroke="black" points="309.141,-502 309.141,-632 524.141,-632 524.141,-502 309.141,-502"/>
<text text-anchor="start" x="317.141" y="-616.8" font-family="Times,serif" font-size="14.00">9: NOTE_INSN_BASIC_BLOCK 2</text>
<polyline fill="none" stroke="black" points="309.141,-609 524.141,-609 "/>
<text text-anchor="start" x="317.141" y="-593.8" font-family="Times,serif" font-size="14.00">4: r64:SI=di:SI</text>
<polyline fill="none" stroke="black" points="309.141,-586 524.141,-586 "/>
<text text-anchor="start" x="317.141" y="-570.8" font-family="Times,serif" font-size="14.00">5: NOTE_INSN_FUNCTION_BEG</text>
<polyline fill="none" stroke="black" points="309.141,-563 524.141,-563 "/>
<text text-anchor="start" x="317.141" y="-547.8" font-family="Times,serif" font-size="14.00">11: flags:CC=cmp(r64:SI,0x1)</text>
<polyline fill="none" stroke="black" points="309.141,-540 524.141,-540 "/>
<text text-anchor="start" x="317.141" y="-524.8" font-family="Times,serif" font-size="14.00">12: pc={(leu(flags:CC,0))?L35:pc}</text>
<text text-anchor="start" x="317.141" y="-509.8" font-family="Times,serif" font-size="14.00"> &#160;&#160;&#160;&#160;&#160;REG_BR_PROB 0x384</text>
</g>
<!-- fn_0_basic_block_0&#45;&gt;fn_0_basic_block_2 -->
<g id="edge1" class="edge"><title>fn_0_basic_block_0:s&#45;&gt;fn_0_basic_block_2:n</title>
<path fill="none" stroke="blue" stroke-width="2" d="M416.641,-669C416.641,-657 416.641,-651.75 416.641,-643.125"/>
<polygon fill="blue" stroke="blue" stroke-width="2" points="420.141,-643 416.641,-633 413.141,-643 420.141,-643"/>
</g>
<!-- fn_0_basic_block_4 -->
<g id="node6" class="node"><title>fn_0_basic_block_4</title>
<polygon fill="lightgrey" stroke="black" points="306.141,-418 306.141,-464 527.141,-464 527.141,-418 306.141,-418"/>
<text text-anchor="start" x="314.141" y="-448.8" font-family="Times,serif" font-size="14.00">13: NOTE_INSN_BASIC_BLOCK 4</text>
<polyline fill="none" stroke="black" points="306.141,-441 527.141,-441 "/>
<text text-anchor="start" x="314.141" y="-425.8" font-family="Times,serif" font-size="14.00">7: r61:SI=0x1</text>
</g>
<!-- fn_0_basic_block_2&#45;&gt;fn_0_basic_block_4 -->
<g id="edge3" class="edge"><title>fn_0_basic_block_2:s&#45;&gt;fn_0_basic_block_4:n</title>
<path fill="none" stroke="blue" stroke-width="2" d="M416.641,-501C416.641,-489 416.641,-483.75 416.641,-475.125"/>
<polygon fill="blue" stroke="blue" stroke-width="2" points="420.141,-475 416.641,-465 413.141,-475 420.141,-475"/>
</g>
<!-- fn_0_basic_block_7 -->
<g id="node7" class="node"><title>fn_0_basic_block_7</title>
<polygon fill="lightgrey" stroke="black" points="44.1407,-266.5 44.1407,-335.5 265.141,-335.5 265.141,-266.5 44.1407,-266.5"/>
<text text-anchor="start" x="52.1407" y="-320.3" font-family="Times,serif" font-size="14.00">35: L35:</text>
<polyline fill="none" stroke="black" points="44.1407,-312.5 265.141,-312.5 "/>
<text text-anchor="start" x="52.1407" y="-297.3" font-family="Times,serif" font-size="14.00">34: NOTE_INSN_BASIC_BLOCK 7</text>
<polyline fill="none" stroke="black" points="44.1407,-289.5 265.141,-289.5 "/>
<text text-anchor="start" x="52.1407" y="-274.3" font-family="Times,serif" font-size="14.00">8: r61:SI=0x1</text>
</g>
<!-- fn_0_basic_block_2&#45;&gt;fn_0_basic_block_7 -->
<g id="edge2" class="edge"><title>fn_0_basic_block_2:s&#45;&gt;fn_0_basic_block_7:n</title>
<path fill="none" stroke="black" stroke-width="2" d="M416.641,-501C416.641,-445.744 345.813,-492.068 297.641,-465 226.329,-424.929 160.281,-422.442 154.983,-347.078"/>
<polygon fill="black" stroke="black" stroke-width="2" points="158.478,-346.875 154.641,-337 151.482,-347.113 158.478,-346.875"/>
</g>
<!-- fn_0_basic_block_4&#45;&gt;fn_0_basic_block_5 -->
<g id="edge4" class="edge"><title>fn_0_basic_block_4:s&#45;&gt;fn_0_basic_block_5:n</title>
<path fill="none" stroke="blue" stroke-width="2" d="M416.641,-417C416.641,-404.069 416.641,-398.564 416.641,-389.114"/>
<polygon fill="blue" stroke="blue" stroke-width="2" points="420.141,-389 416.641,-379 413.141,-389 420.141,-389"/>
</g>
<!-- fn_0_basic_block_7&#45;&gt;fn_0_basic_block_8 -->
<g id="edge8" class="edge"><title>fn_0_basic_block_7:s&#45;&gt;fn_0_basic_block_8:n</title>
<path fill="none" stroke="blue" stroke-width="2" d="M154.641,-265C154.641,-234.387 154.641,-224.312 154.641,-198.032"/>
<polygon fill="blue" stroke="blue" stroke-width="2" points="158.141,-198 154.641,-188 151.141,-198 158.141,-198"/>
</g>
<!-- fn_0_basic_block_8&#45;&gt;fn_0_basic_block_1 -->
<g id="edge9" class="edge"><title>fn_0_basic_block_8:s&#45;&gt;fn_0_basic_block_1:n</title>
<path fill="none" stroke="blue" stroke-width="2" d="M154.641,-72C154.641,-60 154.641,-54.75 154.641,-46.125"/>
<polygon fill="blue" stroke="blue" stroke-width="2" points="158.141,-46 154.641,-36 151.141,-46 158.141,-46"/>
</g>
</g>
</svg>
