<?xml version="1.0" encoding="UTF-8" standalone="no"?>
<!DOCTYPE svg PUBLIC "-//W3C//DTD SVG 1.1//EN"
 "http://www.w3.org/Graphics/SVG/1.1/DTD/svg11.dtd">
<!-- Generated by graphviz version 2.36.0 (20140111.2315)
 -->
<!-- Title: fact.c.016t.ssa Pages: 1 -->
<svg width="366pt" height="504pt"
 viewBox="0.00 0.00 365.91 504.00" xmlns="http://www.w3.org/2000/svg" xmlns:xlink="http://www.w3.org/1999/xlink">
<g id="graph0" class="graph" transform="scale(1 1) rotate(0) translate(4 500)">
<title>fact.c.016t.ssa</title>
<polygon fill="white" stroke="none" points="-4,4 -4,-500 361.912,-500 361.912,4 -4,4"/>
<!-- fn_0_basic_block_1 -->
<g id="node1" class="node"><title>fn_0_basic_block_1</title>
<polygon fill="white" stroke="black" points="120.912,-36 77.611,-18 120.912,-3.55271e-15 164.213,-18 120.912,-36"/>
<polyline fill="none" stroke="black" points="88.6918,-22.6062 88.6918,-13.3938 "/>
<polyline fill="none" stroke="black" points="109.831,-4.6062 131.993,-4.6062 "/>
<polyline fill="none" stroke="black" points="153.132,-13.3938 153.132,-22.6062 "/>
<polyline fill="none" stroke="black" points="131.993,-31.3938 109.831,-31.3938 "/>
<text text-anchor="middle" x="120.912" y="-14.3" font-family="Times,serif" font-size="14.00">EXIT</text>
</g>
<!-- fn_0_basic_block_2 -->
<g id="node2" class="node"><title>fn_0_basic_block_2</title>
<polygon fill="lightgrey" stroke="black" points="67.4121,-332.5 67.4121,-423.5 174.412,-423.5 174.412,-332.5 67.4121,-332.5"/>
<text text-anchor="start" x="75.4121" y="-408.3" font-family="Times,serif" font-size="14.00">&lt;bb 2&gt;:</text>
<polyline fill="none" stroke="black" points="67.4121,-400.5 174.412,-400.5 "/>
<text text-anchor="start" x="75.4121" y="-385.3" font-family="Times,serif" font-size="14.00">if (x_2(D) &lt;= 1)</text>
<text text-anchor="start" x="75.4121" y="-370.3" font-family="Times,serif" font-size="14.00"> &#160;goto &lt;bb 3&gt;;</text>
<text text-anchor="start" x="75.4121" y="-355.3" font-family="Times,serif" font-size="14.00">else</text>
<text text-anchor="start" x="75.4121" y="-340.3" font-family="Times,serif" font-size="14.00"> &#160;goto &lt;bb 4&gt;;</text>
</g>
<!-- fn_0_basic_block_4 -->
<g id="node3" class="node"><title>fn_0_basic_block_4</title>
<polygon fill="lightgrey" stroke="black" points="34.9121,-203 34.9121,-295 206.912,-295 206.912,-203 34.9121,-203"/>
<text text-anchor="start" x="42.9121" y="-279.8" font-family="Times,serif" font-size="14.00">&lt;bb 4&gt;:</text>
<polyline fill="none" stroke="black" points="34.9121,-272 206.912,-272 "/>
<text text-anchor="start" x="42.9121" y="-256.8" font-family="Times,serif" font-size="14.00">_4 = x_2(D) + 4294967295;</text>
<polyline fill="none" stroke="black" points="34.9121,-249 206.912,-249 "/>
<text text-anchor="start" x="42.9121" y="-233.8" font-family="Times,serif" font-size="14.00">_5 = fact (_4);</text>
<polyline fill="none" stroke="black" points="34.9121,-226 206.912,-226 "/>
<text text-anchor="start" x="42.9121" y="-210.8" font-family="Times,serif" font-size="14.00">_6 = _5 * x_2(D);</text>
</g>
<!-- fn_0_basic_block_2&#45;&gt;fn_0_basic_block_4 -->
<g id="edge3" class="edge"><title>fn_0_basic_block_2:s&#45;&gt;fn_0_basic_block_4:n</title>
<path fill="none" stroke="black" stroke-width="2" d="M120.912,-332C120.912,-320 120.912,-314.75 120.912,-306.125"/>
<polygon fill="black" stroke="black" stroke-width="2" points="124.412,-306 120.912,-296 117.412,-306 124.412,-306"/>
</g>
<!-- fn_0_basic_block_3 -->
<g id="node4" class="node"><title>fn_0_basic_block_3</title>
<polygon fill="lightgrey" stroke="black" points="225.412,-218.5 225.412,-279.5 358.412,-279.5 358.412,-218.5 225.412,-218.5"/>
<text text-anchor="start" x="233.412" y="-264.3" font-family="Times,serif" font-size="14.00">&lt;bb 3&gt;:</text>
<polyline fill="none" stroke="black" points="225.412,-256.5 358.412,-256.5 "/>
<text text-anchor="start" x="233.412" y="-241.3" font-family="Times,serif" font-size="14.00">_3 = 1;</text>
<text text-anchor="start" x="233.412" y="-226.3" font-family="Times,serif" font-size="14.00">goto &lt;bb 5&gt; (&lt;L2&gt;);</text>
</g>
<!-- fn_0_basic_block_2&#45;&gt;fn_0_basic_block_3 -->
<g id="edge2" class="edge"><title>fn_0_basic_block_2:s&#45;&gt;fn_0_basic_block_3:n</title>
<path fill="none" stroke="black" stroke-width="2" d="M120.912,-332C120.912,-256.409 276.257,-350.63 290.82,-290.959"/>
<polygon fill="black" stroke="black" stroke-width="2" points="294.301,-291.322 291.912,-281 287.343,-290.559 294.301,-291.322"/>
</g>
<!-- fn_0_basic_block_5 -->
<g id="node5" class="node"><title>fn_0_basic_block_5</title>
<polygon fill="lightgrey" stroke="black" points="38.9121,-73 38.9121,-165 202.912,-165 202.912,-73 38.9121,-73"/>
<text text-anchor="start" x="46.9121" y="-149.8" font-family="Times,serif" font-size="14.00">&lt;bb 5&gt;:</text>
<polyline fill="none" stroke="black" points="38.9121,-142 202.912,-142 "/>
<text text-anchor="start" x="46.9121" y="-126.8" font-family="Times,serif" font-size="14.00"># _1 = PHI &lt;_3(3), _6(4)&gt;</text>
<polyline fill="none" stroke="black" points="38.9121,-119 202.912,-119 "/>
<text text-anchor="start" x="46.9121" y="-103.8" font-family="Times,serif" font-size="14.00">&lt;L2&gt;:</text>
<polyline fill="none" stroke="black" points="38.9121,-96 202.912,-96 "/>
<text text-anchor="start" x="46.9121" y="-80.8" font-family="Times,serif" font-size="14.00">return _1;</text>
</g>
<!-- fn_0_basic_block_4&#45;&gt;fn_0_basic_block_5 -->
<g id="edge5" class="edge"><title>fn_0_basic_block_4:s&#45;&gt;fn_0_basic_block_5:n</title>
<path fill="none" stroke="blue" stroke-width="2" d="M120.912,-202C120.912,-190 120.912,-184.75 120.912,-176.125"/>
<polygon fill="blue" stroke="blue" stroke-width="2" points="124.412,-176 120.912,-166 117.412,-176 124.412,-176"/>
</g>
<!-- fn_0_basic_block_3&#45;&gt;fn_0_basic_block_5 -->
<g id="edge4" class="edge"><title>fn_0_basic_block_3:s&#45;&gt;fn_0_basic_block_5:n</title>
<path fill="none" stroke="blue" stroke-width="2" d="M291.912,-217C291.912,-141.409 136.568,-235.63 122.004,-175.959"/>
<polygon fill="blue" stroke="blue" stroke-width="2" points="125.481,-175.559 120.912,-166 118.523,-176.322 125.481,-175.559"/>
</g>
<!-- fn_0_basic_block_5&#45;&gt;fn_0_basic_block_1 -->
<g id="edge6" class="edge"><title>fn_0_basic_block_5:s&#45;&gt;fn_0_basic_block_1:n</title>
<path fill="none" stroke="black" stroke-width="2" d="M120.912,-72C120.912,-60 120.912,-54.75 120.912,-46.125"/>
<polygon fill="black" stroke="black" stroke-width="2" points="124.412,-46 120.912,-36 117.412,-46 124.412,-46"/>
</g>
<!-- fn_0_basic_block_0 -->
<g id="node6" class="node"><title>fn_0_basic_block_0</title>
<polygon fill="white" stroke="black" points="120.912,-496 64.4303,-478 120.912,-460 177.394,-478 120.912,-496"/>
<polyline fill="none" stroke="black" points="75.8638,-481.644 75.8638,-474.356 "/>
<polyline fill="none" stroke="black" points="109.479,-463.644 132.346,-463.644 "/>
<polyline fill="none" stroke="black" points="165.96,-474.356 165.96,-481.644 "/>
<polyline fill="none" stroke="black" points="132.346,-492.356 109.479,-492.356 "/>
<text text-anchor="middle" x="120.912" y="-474.3" font-family="Times,serif" font-size="14.00">ENTRY</text>
</g>
<!-- fn_0_basic_block_0&#45;&gt;fn_0_basic_block_1 -->
<!-- fn_0_basic_block_0&#45;&gt;fn_0_basic_block_2 -->
<g id="edge1" class="edge"><title>fn_0_basic_block_0:s&#45;&gt;fn_0_basic_block_2:n</title>
<path fill="none" stroke="blue" stroke-width="2" d="M120.912,-460C120.912,-448 120.912,-442.75 120.912,-434.125"/>
<polygon fill="blue" stroke="blue" stroke-width="2" points="124.412,-434 120.912,-424 117.412,-434 124.412,-434"/>
</g>
</g>
</svg>
