<?xml version="1.0" encoding="UTF-8" standalone="no"?>
<!DOCTYPE svg PUBLIC "-//W3C//DTD SVG 1.1//EN"
 "http://www.w3.org/Graphics/SVG/1.1/DTD/svg11.dtd">
<!-- Generated by graphviz version 2.36.0 (20140111.2315)
 -->
<!-- Title: fact.c.032t.switchconv Pages: 1 -->
<svg width="496pt" height="420pt"
 viewBox="0.00 0.00 496.46 420.00" xmlns="http://www.w3.org/2000/svg" xmlns:xlink="http://www.w3.org/1999/xlink">
<g id="graph0" class="graph" transform="scale(1 1) rotate(0) translate(4 416)">
<title>fact.c.032t.switchconv</title>
<polygon fill="white" stroke="none" points="-4,4 -4,-416 492.463,-416 492.463,4 -4,4"/>
<!-- fn_0_basic_block_1 -->
<g id="node1" class="node"><title>fn_0_basic_block_1</title>
<polygon fill="white" stroke="black" points="389.463,-36 346.162,-18 389.463,-3.55271e-15 432.765,-18 389.463,-36"/>
<polyline fill="none" stroke="black" points="357.243,-22.6062 357.243,-13.3938 "/>
<polyline fill="none" stroke="black" points="378.383,-4.6062 400.544,-4.6062 "/>
<polyline fill="none" stroke="black" points="421.684,-13.3938 421.684,-22.6062 "/>
<polyline fill="none" stroke="black" points="400.544,-31.3938 378.383,-31.3938 "/>
<text text-anchor="middle" x="389.463" y="-14.3" font-family="Times,serif" font-size="14.00">EXIT</text>
</g>
<!-- fn_0_basic_block_2 -->
<g id="node2" class="node"><title>fn_0_basic_block_2</title>
<polygon fill="lightgrey" stroke="black" points="66.9635,-202.5 66.9635,-339.5 331.963,-339.5 331.963,-202.5 66.9635,-202.5"/>
<text text-anchor="start" x="74.9635" y="-324.3" font-family="Times,serif" font-size="14.00">&lt;bb 2&gt;:</text>
<polyline fill="none" stroke="black" points="66.9635,-316.5 331.963,-316.5 "/>
<text text-anchor="start" x="74.9635" y="-301.3" font-family="Times,serif" font-size="14.00"># x_3 = PHI &lt;x_4(D)(0), _6(3)&gt;</text>
<polyline fill="none" stroke="black" points="66.9635,-293.5 331.963,-293.5 "/>
<text text-anchor="start" x="74.9635" y="-278.3" font-family="Times,serif" font-size="14.00"># mult_acc_10 = PHI &lt;1(0), mult_acc_9(3)&gt;</text>
<polyline fill="none" stroke="black" points="66.9635,-270.5 331.963,-270.5 "/>
<text text-anchor="start" x="74.9635" y="-255.3" font-family="Times,serif" font-size="14.00">if (x_3 &lt;= 1)</text>
<text text-anchor="start" x="74.9635" y="-240.3" font-family="Times,serif" font-size="14.00"> &#160;goto &lt;bb 4&gt;;</text>
<text text-anchor="start" x="74.9635" y="-225.3" font-family="Times,serif" font-size="14.00">else</text>
<text text-anchor="start" x="74.9635" y="-210.3" font-family="Times,serif" font-size="14.00"> &#160;goto &lt;bb 3&gt;;</text>
</g>
<!-- fn_0_basic_block_3 -->
<g id="node3" class="node"><title>fn_0_basic_block_3</title>
<polygon fill="lightgrey" stroke="black" points="66.9635,-77 66.9635,-161 271.963,-161 271.963,-77 66.9635,-77"/>
<text text-anchor="start" x="74.9635" y="-145.8" font-family="Times,serif" font-size="14.00">&lt;bb 3&gt;:</text>
<polyline fill="none" stroke="black" points="66.9635,-138 271.963,-138 "/>
<text text-anchor="start" x="74.9635" y="-122.8" font-family="Times,serif" font-size="14.00">_6 = x_3 + 4294967295;</text>
<polyline fill="none" stroke="black" points="66.9635,-115 271.963,-115 "/>
<text text-anchor="start" x="74.9635" y="-99.8" font-family="Times,serif" font-size="14.00">mult_acc_9 = mult_acc_10 * x_3;</text>
<text text-anchor="start" x="74.9635" y="-84.8" font-family="Times,serif" font-size="14.00">goto &lt;bb 2&gt;;</text>
</g>
<!-- fn_0_basic_block_2&#45;&gt;fn_0_basic_block_3 -->
<g id="edge3" class="edge"><title>fn_0_basic_block_2:s&#45;&gt;fn_0_basic_block_3:n</title>
<path fill="none" stroke="black" stroke-width="2" d="M199.463,-202C199.463,-183.771 179.276,-183.486 172.021,-171.706"/>
<polygon fill="black" stroke="black" stroke-width="2" points="175.396,-170.778 169.463,-162 168.627,-172.562 175.396,-170.778"/>
</g>
<!-- fn_0_basic_block_4 -->
<g id="node4" class="node"><title>fn_0_basic_block_4</title>
<polygon fill="lightgrey" stroke="black" points="290.463,-73 290.463,-165 488.463,-165 488.463,-73 290.463,-73"/>
<text text-anchor="start" x="298.463" y="-149.8" font-family="Times,serif" font-size="14.00">&lt;bb 4&gt;:</text>
<polyline fill="none" stroke="black" points="290.463,-142 488.463,-142 "/>
<text text-anchor="start" x="298.463" y="-126.8" font-family="Times,serif" font-size="14.00"># _1 = PHI &lt;1(2)&gt;</text>
<polyline fill="none" stroke="black" points="290.463,-119 488.463,-119 "/>
<text text-anchor="start" x="298.463" y="-103.8" font-family="Times,serif" font-size="14.00">mul_tmp_8 = mult_acc_10 * _1;</text>
<polyline fill="none" stroke="black" points="290.463,-96 488.463,-96 "/>
<text text-anchor="start" x="298.463" y="-80.8" font-family="Times,serif" font-size="14.00">return mul_tmp_8;</text>
</g>
<!-- fn_0_basic_block_2&#45;&gt;fn_0_basic_block_4 -->
<g id="edge2" class="edge"><title>fn_0_basic_block_2:s&#45;&gt;fn_0_basic_block_4:n</title>
<path fill="none" stroke="black" stroke-width="2" d="M199.463,-202C199.463,-119.914 372.777,-240.185 388.348,-176.28"/>
<polygon fill="black" stroke="black" stroke-width="2" points="391.864,-176.319 389.463,-166 384.905,-175.564 391.864,-176.319"/>
</g>
<!-- fn_0_basic_block_3&#45;&gt;fn_0_basic_block_2 -->
<g id="edge4" class="edge"><title>fn_0_basic_block_3:s&#45;&gt;fn_0_basic_block_2:n</title>
<path fill="none" stroke="blue" stroke-width="2" stroke-dasharray="1,5" d="M169.463,-76C169.463,-53.3322 254.638,-61.8101 271.463,-77 286.236,-90.3367 271.414,-148.821 281.463,-166 295.291,-189.635 318.98,-177.628 331.463,-202 359.426,-256.588 374.668,-296.467 331.463,-340 322.786,-348.743 235.58,-353.851 207.869,-346.575"/>
<polygon fill="blue" stroke="blue" stroke-width="2" points="209.732,-343.61 199.463,-341 205.863,-349.444 209.732,-343.61"/>
</g>
<!-- fn_0_basic_block_4&#45;&gt;fn_0_basic_block_1 -->
<g id="edge5" class="edge"><title>fn_0_basic_block_4:s&#45;&gt;fn_0_basic_block_1:n</title>
<path fill="none" stroke="black" stroke-width="2" d="M389.463,-72C389.463,-60 389.463,-54.75 389.463,-46.125"/>
<polygon fill="black" stroke="black" stroke-width="2" points="392.964,-46 389.463,-36 385.964,-46 392.964,-46"/>
</g>
<!-- fn_0_basic_block_0 -->
<g id="node5" class="node"><title>fn_0_basic_block_0</title>
<polygon fill="white" stroke="black" points="199.463,-412 142.982,-394 199.463,-376 255.945,-394 199.463,-412"/>
<polyline fill="none" stroke="black" points="154.415,-397.644 154.415,-390.356 "/>
<polyline fill="none" stroke="black" points="188.03,-379.644 210.897,-379.644 "/>
<polyline fill="none" stroke="black" points="244.512,-390.356 244.512,-397.644 "/>
<polyline fill="none" stroke="black" points="210.897,-408.356 188.03,-408.356 "/>
<text text-anchor="middle" x="199.463" y="-390.3" font-family="Times,serif" font-size="14.00">ENTRY</text>
</g>
<!-- fn_0_basic_block_0&#45;&gt;fn_0_basic_block_1 -->
<!-- fn_0_basic_block_0&#45;&gt;fn_0_basic_block_2 -->
<g id="edge1" class="edge"><title>fn_0_basic_block_0:s&#45;&gt;fn_0_basic_block_2:n</title>
<path fill="none" stroke="blue" stroke-width="2" d="M199.463,-376C199.463,-364 199.463,-358.75 199.463,-350.125"/>
<polygon fill="blue" stroke="blue" stroke-width="2" points="202.964,-350 199.463,-340 195.964,-350 202.964,-350"/>
</g>
</g>
</svg>
