<?xml version="1.0" encoding="UTF-8"?><svg xmlns="http://www.w3.org/2000/svg" xmlns:xlink="http://www.w3.org/1999/xlink" fill-opacity="1" color-rendering="auto" color-interpolation="auto" text-rendering="auto" stroke="black" stroke-linecap="square" width="686" stroke-miterlimit="10" shape-rendering="auto" stroke-opacity="1" fill="black" stroke-dasharray="none" font-weight="normal" stroke-width="1" height="423" font-family="'Dialog'" font-style="normal" stroke-linejoin="miter" font-size="12px" stroke-dashoffset="0" image-rendering="auto">
  <!--Generated by ySVG 2.5-->
  <defs id="genericDefs"/>
  <g>
    <defs id="defs1">
      <clipPath clipPathUnits="userSpaceOnUse" id="clipPath1">
        <path d="M0 0 L686 0 L686 423 L0 423 L0 0 Z"/>
      </clipPath>
      <clipPath clipPathUnits="userSpaceOnUse" id="clipPath2">
        <path d="M79 124 L765 124 L765 547 L79 547 L79 124 Z"/>
      </clipPath>
    </defs>
    <g fill="white" text-rendering="geometricPrecision" shape-rendering="geometricPrecision" transform="translate(-79,-124)" stroke="white">
      <rect x="79" width="686" height="423" y="124" clip-path="url(#clipPath2)" stroke="none"/>
    </g>
    <g fill="white" text-rendering="geometricPrecision" shape-rendering="geometricPrecision" transform="matrix(1,0,0,1,-79,-124)" stroke="white">
      <rect x="144.5" width="43" height="44" y="139.5" clip-path="url(#clipPath2)" stroke="none"/>
    </g>
    <g font-size="26px" stroke-linecap="butt" transform="matrix(1,0,0,1,-79,-124)" text-rendering="geometricPrecision" font-family="sans-serif" shape-rendering="geometricPrecision" stroke-miterlimit="1.45">
      <text x="162.3882" xml:space="preserve" y="170.501" clip-path="url(#clipPath2)" stroke="none">i</text>
      <rect x="144.5" y="139.5" clip-path="url(#clipPath2)" fill="none" width="43" stroke-dasharray="6,2" height="44"/>
    </g>
    <g fill="white" text-rendering="geometricPrecision" shape-rendering="geometricPrecision" transform="matrix(1,0,0,1,-79,-124)" stroke="white">
      <rect x="187.5" width="43" height="44" y="139.5" clip-path="url(#clipPath2)" stroke="none"/>
    </g>
    <g font-size="26px" stroke-linecap="butt" transform="matrix(1,0,0,1,-79,-124)" text-rendering="geometricPrecision" font-family="sans-serif" shape-rendering="geometricPrecision" stroke-miterlimit="1.45">
      <text x="204.4233" xml:space="preserve" y="170.501" clip-path="url(#clipPath2)" stroke="none">f</text>
      <rect x="187.5" y="139.5" clip-path="url(#clipPath2)" fill="none" width="43" stroke-dasharray="6,2" height="44"/>
    </g>
    <g fill="white" text-rendering="geometricPrecision" shape-rendering="geometricPrecision" transform="matrix(1,0,0,1,-79,-124)" stroke="white">
      <rect x="230.5" width="43" height="44" y="139.5" clip-path="url(#clipPath2)" stroke="none"/>
    </g>
    <g font-size="26px" stroke-linecap="butt" transform="matrix(1,0,0,1,-79,-124)" text-rendering="geometricPrecision" font-family="sans-serif" shape-rendering="geometricPrecision" stroke-miterlimit="1.45">
      <text x="246.9282" xml:space="preserve" y="170.501" clip-path="url(#clipPath2)" stroke="none">(</text>
      <rect x="230.5" y="139.5" clip-path="url(#clipPath2)" fill="none" width="43" stroke-dasharray="6,2" height="44"/>
    </g>
    <g fill="white" text-rendering="geometricPrecision" shape-rendering="geometricPrecision" transform="matrix(1,0,0,1,-79,-124)" stroke="white">
      <rect x="273.5" width="43" height="44" y="139.5" clip-path="url(#clipPath2)" stroke="none"/>
    </g>
    <g text-rendering="geometricPrecision" stroke-miterlimit="1.45" stroke-dasharray="6,2" shape-rendering="geometricPrecision" transform="matrix(1,0,0,1,-79,-124)" stroke-linecap="butt">
      <rect fill="none" x="273.5" width="43" height="44" y="139.5" clip-path="url(#clipPath2)"/>
    </g>
    <g fill="white" text-rendering="geometricPrecision" shape-rendering="geometricPrecision" transform="matrix(1,0,0,1,-79,-124)" stroke="white">
      <rect x="316.5" width="43" height="44" y="139.5" clip-path="url(#clipPath2)" stroke="none"/>
    </g>
    <g font-size="26px" stroke-linecap="butt" transform="matrix(1,0,0,1,-79,-124)" text-rendering="geometricPrecision" font-family="sans-serif" shape-rendering="geometricPrecision" stroke-miterlimit="1.45">
      <text x="330.3066" xml:space="preserve" y="170.501" clip-path="url(#clipPath2)" stroke="none">x</text>
      <rect x="316.5" y="139.5" clip-path="url(#clipPath2)" fill="none" width="43" stroke-dasharray="6,2" height="44"/>
    </g>
    <g fill="white" text-rendering="geometricPrecision" shape-rendering="geometricPrecision" transform="matrix(1,0,0,1,-79,-124)" stroke="white">
      <rect x="359.5" width="43" height="44" y="139.5" clip-path="url(#clipPath2)" stroke="none"/>
    </g>
    <g text-rendering="geometricPrecision" stroke-miterlimit="1.45" stroke-dasharray="6,2" shape-rendering="geometricPrecision" transform="matrix(1,0,0,1,-79,-124)" stroke-linecap="butt">
      <rect fill="none" x="359.5" width="43" height="44" y="139.5" clip-path="url(#clipPath2)"/>
    </g>
    <g fill="white" text-rendering="geometricPrecision" shape-rendering="geometricPrecision" transform="matrix(1,0,0,1,-79,-124)" stroke="white">
      <rect x="402.5" width="43" height="44" y="139.5" clip-path="url(#clipPath2)" stroke="none"/>
    </g>
    <g font-size="26px" stroke-linecap="butt" transform="matrix(1,0,0,1,-79,-124)" text-rendering="geometricPrecision" font-family="sans-serif" shape-rendering="geometricPrecision" stroke-miterlimit="1.45">
      <text x="413.1074" xml:space="preserve" y="170.501" clip-path="url(#clipPath2)" stroke="none">&gt;</text>
      <rect x="402.5" y="139.5" clip-path="url(#clipPath2)" fill="none" width="43" stroke-dasharray="6,2" height="44"/>
    </g>
    <g fill="white" text-rendering="geometricPrecision" shape-rendering="geometricPrecision" transform="matrix(1,0,0,1,-79,-124)" stroke="white">
      <rect x="445.5" width="43" height="44" y="139.5" clip-path="url(#clipPath2)" stroke="none"/>
    </g>
    <g text-rendering="geometricPrecision" stroke-miterlimit="1.45" stroke-dasharray="6,2" shape-rendering="geometricPrecision" transform="matrix(1,0,0,1,-79,-124)" stroke-linecap="butt">
      <rect fill="none" x="445.5" width="43" height="44" y="139.5" clip-path="url(#clipPath2)"/>
    </g>
    <g fill="white" text-rendering="geometricPrecision" shape-rendering="geometricPrecision" transform="matrix(1,0,0,1,-79,-124)" stroke="white">
      <rect x="488.5" width="43" height="44" y="139.5" clip-path="url(#clipPath2)" stroke="none"/>
    </g>
    <g font-size="26px" stroke-linecap="butt" transform="matrix(1,0,0,1,-79,-124)" text-rendering="geometricPrecision" font-family="sans-serif" shape-rendering="geometricPrecision" stroke-miterlimit="1.45">
      <text x="501.729" xml:space="preserve" y="170.501" clip-path="url(#clipPath2)" stroke="none">3</text>
      <rect x="488.5" y="139.5" clip-path="url(#clipPath2)" fill="none" width="43" stroke-dasharray="6,2" height="44"/>
    </g>
    <g fill="white" text-rendering="geometricPrecision" shape-rendering="geometricPrecision" transform="matrix(1,0,0,1,-79,-124)" stroke="white">
      <rect x="531.5" width="43" height="44" y="139.5" clip-path="url(#clipPath2)" stroke="none"/>
    </g>
    <g font-size="26px" stroke-linecap="butt" transform="matrix(1,0,0,1,-79,-124)" text-rendering="geometricPrecision" font-family="sans-serif" shape-rendering="geometricPrecision" stroke-miterlimit="1.45">
      <text x="548.8677" xml:space="preserve" y="170.501" clip-path="url(#clipPath2)" stroke="none">.</text>
      <rect x="531.5" y="139.5" clip-path="url(#clipPath2)" fill="none" width="43" stroke-dasharray="6,2" height="44"/>
    </g>
    <g fill="white" text-rendering="geometricPrecision" shape-rendering="geometricPrecision" transform="matrix(1,0,0,1,-79,-124)" stroke="white">
      <rect x="574.5" width="43" height="44" y="139.5" clip-path="url(#clipPath2)" stroke="none"/>
    </g>
    <g font-size="26px" stroke-linecap="butt" transform="matrix(1,0,0,1,-79,-124)" text-rendering="geometricPrecision" font-family="sans-serif" shape-rendering="geometricPrecision" stroke-miterlimit="1.45">
      <text x="587.729" xml:space="preserve" y="170.501" clip-path="url(#clipPath2)" stroke="none">1</text>
      <rect x="574.5" y="139.5" clip-path="url(#clipPath2)" fill="none" width="43" stroke-dasharray="6,2" height="44"/>
    </g>
    <g fill="white" text-rendering="geometricPrecision" shape-rendering="geometricPrecision" transform="matrix(1,0,0,1,-79,-124)" stroke="white">
      <rect x="617.5" width="43" height="44" y="139.5" clip-path="url(#clipPath2)" stroke="none"/>
    </g>
    <g text-rendering="geometricPrecision" stroke-miterlimit="1.45" stroke-dasharray="6,2" shape-rendering="geometricPrecision" transform="matrix(1,0,0,1,-79,-124)" stroke-linecap="butt">
      <rect fill="none" x="617.5" width="43" height="44" y="139.5" clip-path="url(#clipPath2)"/>
    </g>
    <g fill="white" text-rendering="geometricPrecision" shape-rendering="geometricPrecision" transform="matrix(1,0,0,1,-79,-124)" stroke="white">
      <rect x="273.5" width="237" height="77" y="285.5" clip-path="url(#clipPath2)" stroke="none"/>
    </g>
    <g font-size="26px" stroke-linecap="butt" transform="matrix(1,0,0,1,-79,-124)" text-rendering="geometricPrecision" font-family="sans-serif" shape-rendering="geometricPrecision" stroke-miterlimit="1.45">
      <text x="303.2026" xml:space="preserve" y="317.8682" clip-path="url(#clipPath2)" stroke="none">Лексический</text>
      <text x="312.1528" xml:space="preserve" y="348.1338" clip-path="url(#clipPath2)" stroke="none">анализатор</text>
      <rect x="273.5" y="285.5" clip-path="url(#clipPath2)" fill="none" width="237" height="77" stroke-width="2"/>
    </g>
    <g fill="white" text-rendering="geometricPrecision" shape-rendering="geometricPrecision" transform="matrix(1,0,0,1,-79,-124)" stroke="white">
      <rect x="94" width="164" height="44" y="443.5" clip-path="url(#clipPath2)" stroke="none"/>
    </g>
    <g font-size="26px" stroke-linecap="butt" transform="matrix(1,0,0,1,-79,-124)" text-rendering="geometricPrecision" font-family="sans-serif" shape-rendering="geometricPrecision" stroke-miterlimit="1.45">
      <text x="109.1909" xml:space="preserve" y="474.501" clip-path="url(#clipPath2)" stroke="none">KEYWORD</text>
      <rect x="94" y="443.5" clip-path="url(#clipPath2)" fill="none" width="164" stroke-dasharray="6,2" height="44"/>
    </g>
    <g fill="white" text-rendering="geometricPrecision" shape-rendering="geometricPrecision" transform="matrix(1,0,0,1,-79,-124)" stroke="white">
      <rect x="94" width="164" height="44" y="487.5" clip-path="url(#clipPath2)" stroke="none"/>
    </g>
    <g font-size="26px" stroke-linecap="butt" transform="matrix(1,0,0,1,-79,-124)" text-rendering="geometricPrecision" font-family="sans-serif" shape-rendering="geometricPrecision" stroke-miterlimit="1.45">
      <text x="155.8525" xml:space="preserve" y="518.501" clip-path="url(#clipPath2)" stroke="none">"if"</text>
      <rect x="94" y="487.5" clip-path="url(#clipPath2)" fill="none" width="164" stroke-dasharray="6,2" height="44"/>
    </g>
    <g fill="white" text-rendering="geometricPrecision" shape-rendering="geometricPrecision" transform="matrix(1,0,0,1,-79,-124)" stroke="white">
      <rect x="258" width="164" height="44" y="443.5" clip-path="url(#clipPath2)" stroke="none"/>
    </g>
    <g font-size="26px" stroke-linecap="butt" transform="matrix(1,0,0,1,-79,-124)" text-rendering="geometricPrecision" font-family="sans-serif" shape-rendering="geometricPrecision" stroke-miterlimit="1.45">
      <text x="279.3989" xml:space="preserve" y="474.501" clip-path="url(#clipPath2)" stroke="none">BRACKET</text>
      <rect x="258" y="443.5" clip-path="url(#clipPath2)" fill="none" width="164" stroke-dasharray="6,2" height="44"/>
    </g>
    <g fill="white" text-rendering="geometricPrecision" shape-rendering="geometricPrecision" transform="matrix(1,0,0,1,-79,-124)" stroke="white">
      <rect x="258" width="164" height="44" y="487.5" clip-path="url(#clipPath2)" stroke="none"/>
    </g>
    <g font-size="26px" stroke-linecap="butt" transform="matrix(1,0,0,1,-79,-124)" text-rendering="geometricPrecision" font-family="sans-serif" shape-rendering="geometricPrecision" stroke-miterlimit="1.45">
      <text x="322.9692" xml:space="preserve" y="518.501" clip-path="url(#clipPath2)" stroke="none">"("</text>
      <rect x="258" y="487.5" clip-path="url(#clipPath2)" fill="none" width="164" stroke-dasharray="6,2" height="44"/>
    </g>
    <g fill="white" text-rendering="geometricPrecision" shape-rendering="geometricPrecision" transform="matrix(1,0,0,1,-79,-124)" stroke="white">
      <rect x="422" width="164" height="44" y="443.5" clip-path="url(#clipPath2)" stroke="none"/>
    </g>
    <g font-size="26px" stroke-linecap="butt" transform="matrix(1,0,0,1,-79,-124)" text-rendering="geometricPrecision" font-family="sans-serif" shape-rendering="geometricPrecision" stroke-miterlimit="1.45">
      <text x="431.8843" xml:space="preserve" y="474.501" clip-path="url(#clipPath2)" stroke="none">IDENTIFIER</text>
      <rect x="422" y="443.5" clip-path="url(#clipPath2)" fill="none" width="164" stroke-dasharray="6,2" height="44"/>
    </g>
    <g fill="white" text-rendering="geometricPrecision" shape-rendering="geometricPrecision" transform="matrix(1,0,0,1,-79,-124)" stroke="white">
      <rect x="422" width="164" height="44" y="487.5" clip-path="url(#clipPath2)" stroke="none"/>
    </g>
    <g font-size="26px" stroke-linecap="butt" transform="matrix(1,0,0,1,-79,-124)" text-rendering="geometricPrecision" font-family="sans-serif" shape-rendering="geometricPrecision" stroke-miterlimit="1.45">
      <text x="484.3477" xml:space="preserve" y="518.501" clip-path="url(#clipPath2)" stroke="none">"x"</text>
      <rect x="422" y="487.5" clip-path="url(#clipPath2)" fill="none" width="164" stroke-dasharray="6,2" height="44"/>
    </g>
    <g fill="white" text-rendering="geometricPrecision" shape-rendering="geometricPrecision" transform="matrix(1,0,0,1,-79,-124)" stroke="white">
      <rect x="586" width="164" height="44" y="443.5" clip-path="url(#clipPath2)" stroke="none"/>
    </g>
    <g font-size="26px" stroke-linecap="butt" transform="matrix(1,0,0,1,-79,-124)" text-rendering="geometricPrecision" font-family="sans-serif" shape-rendering="geometricPrecision" stroke-miterlimit="1.45">
      <text x="596.5825" xml:space="preserve" y="474.501" clip-path="url(#clipPath2)" stroke="none">OPERATOR</text>
      <rect x="586" y="443.5" clip-path="url(#clipPath2)" fill="none" width="164" stroke-dasharray="6,2" height="44"/>
    </g>
    <g fill="white" text-rendering="geometricPrecision" shape-rendering="geometricPrecision" transform="matrix(1,0,0,1,-79,-124)" stroke="white">
      <rect x="586" width="164" height="44" y="487.5" clip-path="url(#clipPath2)" stroke="none"/>
    </g>
    <g font-size="26px" stroke-linecap="butt" transform="matrix(1,0,0,1,-79,-124)" text-rendering="geometricPrecision" font-family="sans-serif" shape-rendering="geometricPrecision" stroke-miterlimit="1.45">
      <text x="645.1484" xml:space="preserve" y="518.501" clip-path="url(#clipPath2)" stroke="none">"&gt;"</text>
      <rect x="586" y="487.5" clip-path="url(#clipPath2)" fill="none" width="164" stroke-dasharray="6,2" height="44"/>
    </g>
    <g text-rendering="geometricPrecision" stroke-miterlimit="1.45" shape-rendering="geometricPrecision" transform="matrix(1,0,0,1,-79,-124)" stroke-linecap="butt">
      <path fill="none" d="M390.5 183.5265 L390.5 273.35 L390.5 273.35 L385.75 270.5 L392 285.5 L398.25 270.5 L393.5 273.35 L393.5 273.35 L393.5 183.5265 Z" clip-path="url(#clipPath2)"/>
      <text x="152.8174" font-size="26px" y="242.4935" clip-path="url(#clipPath2)" font-family="sans-serif" stroke="none" xml:space="preserve">Поток символов</text>
    </g>
    <g text-rendering="geometricPrecision" stroke-miterlimit="1.45" shape-rendering="geometricPrecision" transform="matrix(1,0,0,1,-79,-124)" stroke-linecap="butt">
      <path fill="none" d="M390.5 362.5 L390.5 431.354 L390.5 431.354 L385.75 428.504 L392 443.504 L398.25 428.504 L393.5 431.354 L393.5 431.354 L393.5 362.5 Z" clip-path="url(#clipPath2)"/>
      <text x="180.6484" font-size="26px" y="409.001" clip-path="url(#clipPath2)" font-family="sans-serif" stroke="none" xml:space="preserve">Поток лексем</text>
    </g>
  </g>
</svg>
