<?xml version="1.0" encoding="UTF-8"?><svg xmlns="http://www.w3.org/2000/svg" xmlns:xlink="http://www.w3.org/1999/xlink" fill-opacity="1" color-rendering="auto" color-interpolation="auto" text-rendering="auto" stroke="black" stroke-linecap="square" width="882" stroke-miterlimit="10" shape-rendering="auto" stroke-opacity="1" fill="black" stroke-dasharray="none" font-weight="normal" stroke-width="1" height="396" font-family="'Dialog'" font-style="normal" stroke-linejoin="miter" font-size="12px" stroke-dashoffset="0" image-rendering="auto">
  <!--Generated by ySVG 2.5-->
  <defs id="genericDefs"/>
  <g>
    <defs id="defs1">
      <clipPath clipPathUnits="userSpaceOnUse" id="clipPath1">
        <path d="M0 0 L882 0 L882 396 L0 396 L0 0 Z"/>
      </clipPath>
      <clipPath clipPathUnits="userSpaceOnUse" id="clipPath2">
        <path d="M83 131 L965 131 L965 527 L83 527 L83 131 Z"/>
      </clipPath>
    </defs>
    <g fill="white" text-rendering="geometricPrecision" shape-rendering="geometricPrecision" transform="translate(-83,-131)" stroke="white">
      <rect x="83" width="882" height="396" y="131" clip-path="url(#clipPath2)" stroke="none"/>
    </g>
    <g fill="white" text-rendering="geometricPrecision" shape-rendering="geometricPrecision" transform="matrix(1,0,0,1,-83,-131)" stroke="white">
      <rect x="237" width="97" height="66" y="342" clip-path="url(#clipPath2)" stroke="none"/>
    </g>
    <g font-size="16px" stroke-linecap="butt" transform="matrix(1,0,0,1,-83,-131)" text-rendering="geometricPrecision" font-family="sans-serif" shape-rendering="geometricPrecision" stroke-miterlimit="1.45">
      <text x="249.4922" xml:space="preserve" y="380.5391" clip-path="url(#clipPath2)" stroke="none">Compiler</text>
      <rect x="237" y="342" clip-path="url(#clipPath2)" fill="none" width="97" height="66" stroke-width="2"/>
    </g>
    <g fill="white" text-rendering="geometricPrecision" shape-rendering="geometricPrecision" transform="matrix(1,0,0,1,-83,-131)" stroke="white">
      <rect x="410" width="97" height="66" y="342" clip-path="url(#clipPath2)" stroke="none"/>
    </g>
    <g font-size="16px" stroke-linecap="butt" transform="matrix(1,0,0,1,-83,-131)" text-rendering="geometricPrecision" font-family="sans-serif" shape-rendering="geometricPrecision" stroke-miterlimit="1.45">
      <text x="416.4648" xml:space="preserve" y="380.5391" clip-path="url(#clipPath2)" stroke="none">Assembler</text>
      <rect x="410" y="342" clip-path="url(#clipPath2)" fill="none" width="97" height="66" stroke-width="2"/>
    </g>
    <g fill="white" text-rendering="geometricPrecision" shape-rendering="geometricPrecision" transform="matrix(1,0,0,1,-83,-131)" stroke="white">
      <rect x="735" width="97" height="66" y="342" clip-path="url(#clipPath2)" stroke="none"/>
    </g>
    <g font-size="16px" stroke-linecap="butt" transform="matrix(1,0,0,1,-83,-131)" text-rendering="geometricPrecision" font-family="sans-serif" shape-rendering="geometricPrecision" stroke-miterlimit="1.45">
      <text x="758.9062" xml:space="preserve" y="380.5391" clip-path="url(#clipPath2)" stroke="none">Linker</text>
      <rect x="735" y="342" clip-path="url(#clipPath2)" fill="none" width="97" height="66" stroke-width="2"/>
    </g>
    <g fill="white" text-rendering="geometricPrecision" shape-rendering="geometricPrecision" transform="matrix(1,0,0,1,-83,-131)" stroke="white">
      <circle r="5" clip-path="url(#clipPath2)" cx="542" cy="375" stroke="none"/>
    </g>
    <g text-rendering="geometricPrecision" stroke-miterlimit="1.45" stroke-width="2" shape-rendering="geometricPrecision" transform="matrix(1,0,0,1,-83,-131)" stroke-linecap="butt">
      <circle fill="none" r="5" clip-path="url(#clipPath2)" cx="542" cy="375"/>
    </g>
    <g fill="white" text-rendering="geometricPrecision" shape-rendering="geometricPrecision" transform="matrix(1,0,0,1,-83,-131)" stroke="white">
      <rect x="403" width="111" height="66" y="446" clip-path="url(#clipPath2)" stroke="none"/>
    </g>
    <g font-size="16px" stroke-linecap="butt" transform="matrix(1,0,0,1,-83,-131)" text-rendering="geometricPrecision" font-family="sans-serif" shape-rendering="geometricPrecision" stroke-miterlimit="1.45">
      <text x="404.4844" xml:space="preserve" y="484.5391" clip-path="url(#clipPath2)" stroke="none">Disassembler</text>
      <rect x="403" y="446" clip-path="url(#clipPath2)" fill="none" width="111" height="66" stroke-width="2"/>
    </g>
    <g fill="white" text-rendering="geometricPrecision" shape-rendering="geometricPrecision" transform="matrix(1,0,0,1,-83,-131)" stroke="white">
      <rect x="583" width="97" height="66" y="229" clip-path="url(#clipPath2)" stroke="none"/>
    </g>
    <g font-size="16px" stroke-linecap="butt" transform="matrix(1,0,0,1,-83,-131)" text-rendering="geometricPrecision" font-family="sans-serif" shape-rendering="geometricPrecision" stroke-miterlimit="1.45">
      <text x="596.9492" xml:space="preserve" y="267.5391" clip-path="url(#clipPath2)" stroke="none">Libraries</text>
      <rect x="583" y="229" clip-path="url(#clipPath2)" fill="none" width="97" height="66" stroke-width="2"/>
    </g>
    <g fill="white" text-rendering="geometricPrecision" shape-rendering="geometricPrecision" transform="matrix(1,0,0,1,-83,-131)" stroke="white">
      <rect x="113" width="69" height="36" y="357" clip-path="url(#clipPath2)" stroke="none"/>
    </g>
    <g font-size="16px" stroke-linecap="butt" transform="matrix(1,0,0,1,-83,-131)" text-rendering="geometricPrecision" font-family="sans-serif" shape-rendering="geometricPrecision" stroke-miterlimit="1.45">
      <text x="121.2656" xml:space="preserve" y="380.5391" clip-path="url(#clipPath2)" stroke="none">code.c</text>
      <rect x="113" y="357" clip-path="url(#clipPath2)" fill="none" width="69" height="36" stroke-width="2"/>
    </g>
    <g fill="white" text-rendering="geometricPrecision" shape-rendering="geometricPrecision" transform="matrix(1,0,0,1,-83,-131)" stroke="white">
      <rect x="113" width="69" height="36" y="306" clip-path="url(#clipPath2)" stroke="none"/>
    </g>
    <g font-size="16px" stroke-linecap="butt" transform="matrix(1,0,0,1,-83,-131)" text-rendering="geometricPrecision" font-family="sans-serif" shape-rendering="geometricPrecision" stroke-miterlimit="1.45">
      <text x="122.8477" xml:space="preserve" y="329.5391" clip-path="url(#clipPath2)" stroke="none">code.f</text>
      <rect x="113" y="306" clip-path="url(#clipPath2)" fill="none" width="69" height="36" stroke-width="2"/>
    </g>
    <g fill="white" text-rendering="geometricPrecision" shape-rendering="geometricPrecision" transform="matrix(1,0,0,1,-83,-131)" stroke="white">
      <rect x="98" width="84" height="36" y="408" clip-path="url(#clipPath2)" stroke="none"/>
    </g>
    <g font-size="16px" stroke-linecap="butt" transform="matrix(1,0,0,1,-83,-131)" text-rendering="geometricPrecision" font-family="sans-serif" shape-rendering="geometricPrecision" stroke-miterlimit="1.45">
      <text x="103.6094" xml:space="preserve" y="431.5391" clip-path="url(#clipPath2)" stroke="none">code.cpp</text>
      <rect x="98" y="408" clip-path="url(#clipPath2)" fill="none" width="84" height="36" stroke-width="2"/>
    </g>
    <g fill="white" text-rendering="geometricPrecision" shape-rendering="geometricPrecision" transform="matrix(1,0,0,1,-83,-131)" stroke="white">
      <rect x="337.5" width="69" height="36" y="268" clip-path="url(#clipPath2)" stroke="none"/>
    </g>
    <g font-size="16px" stroke-linecap="butt" transform="matrix(1,0,0,1,-83,-131)" text-rendering="geometricPrecision" font-family="sans-serif" shape-rendering="geometricPrecision" stroke-miterlimit="1.45">
      <text x="345.9961" xml:space="preserve" y="291.5391" clip-path="url(#clipPath2)" stroke="none">code.s</text>
      <rect x="337.5" y="268" clip-path="url(#clipPath2)" fill="none" width="69" height="36" stroke-width="2"/>
    </g>
    <g fill="white" text-rendering="geometricPrecision" shape-rendering="geometricPrecision" transform="matrix(1,0,0,1,-83,-131)" stroke="white">
      <circle r="5" clip-path="url(#clipPath2)" cx="372" cy="375" stroke="none"/>
    </g>
    <g text-rendering="geometricPrecision" stroke-miterlimit="1.45" stroke-width="2" shape-rendering="geometricPrecision" transform="matrix(1,0,0,1,-83,-131)" stroke-linecap="butt">
      <circle fill="none" r="5" clip-path="url(#clipPath2)" cx="372" cy="375"/>
    </g>
    <g fill="white" text-rendering="geometricPrecision" shape-rendering="geometricPrecision" transform="matrix(1,0,0,1,-83,-131)" stroke="white">
      <rect x="586.5" width="69" height="36" y="419" clip-path="url(#clipPath2)" stroke="none"/>
    </g>
    <g font-size="16px" stroke-linecap="butt" transform="matrix(1,0,0,1,-83,-131)" text-rendering="geometricPrecision" font-family="sans-serif" shape-rendering="geometricPrecision" stroke-miterlimit="1.45">
      <text x="594.2695" xml:space="preserve" y="442.5391" clip-path="url(#clipPath2)" stroke="none">code.o</text>
      <rect x="586.5" y="419" clip-path="url(#clipPath2)" fill="none" width="69" height="36" stroke-width="2"/>
    </g>
    <g fill="white" text-rendering="geometricPrecision" shape-rendering="geometricPrecision" transform="matrix(1,0,0,1,-83,-131)" stroke="white">
      <circle r="5" clip-path="url(#clipPath2)" cx="783.5" cy="262" stroke="none"/>
    </g>
    <g text-rendering="geometricPrecision" stroke-miterlimit="1.45" stroke-width="2" shape-rendering="geometricPrecision" transform="matrix(1,0,0,1,-83,-131)" stroke-linecap="butt">
      <circle fill="none" r="5" clip-path="url(#clipPath2)" cx="783.5" cy="262"/>
    </g>
    <g fill="white" text-rendering="geometricPrecision" shape-rendering="geometricPrecision" transform="matrix(1,0,0,1,-83,-131)" stroke="white">
      <rect x="694.75" width="69" height="36" y="191" clip-path="url(#clipPath2)" stroke="none"/>
    </g>
    <g font-size="16px" stroke-linecap="butt" transform="matrix(1,0,0,1,-83,-131)" text-rendering="geometricPrecision" font-family="sans-serif" shape-rendering="geometricPrecision" stroke-miterlimit="1.45">
      <text x="702.5117" xml:space="preserve" y="214.5391" clip-path="url(#clipPath2)" stroke="none">code.a</text>
      <rect x="694.75" y="191" clip-path="url(#clipPath2)" fill="none" width="69" height="36" stroke-width="2"/>
    </g>
    <g fill="white" text-rendering="geometricPrecision" shape-rendering="geometricPrecision" transform="matrix(1,0,0,1,-83,-131)" stroke="white">
      <rect x="694.75" width="69" height="36" y="146" clip-path="url(#clipPath2)" stroke="none"/>
    </g>
    <g font-size="16px" stroke-linecap="butt" transform="matrix(1,0,0,1,-83,-131)" text-rendering="geometricPrecision" font-family="sans-serif" shape-rendering="geometricPrecision" stroke-miterlimit="1.45">
      <text x="698.3516" xml:space="preserve" y="169.5391" clip-path="url(#clipPath2)" stroke="none">code.os</text>
      <rect x="694.75" y="146" clip-path="url(#clipPath2)" fill="none" width="69" height="36" stroke-width="2"/>
    </g>
    <g fill="white" text-rendering="geometricPrecision" shape-rendering="geometricPrecision" transform="matrix(1,0,0,1,-83,-131)" stroke="white">
      <rect x="873.75" width="76" height="36" y="357" clip-path="url(#clipPath2)" stroke="none"/>
    </g>
    <g font-size="16px" stroke-linecap="butt" transform="matrix(1,0,0,1,-83,-131)" text-rendering="geometricPrecision" font-family="sans-serif" shape-rendering="geometricPrecision" stroke-miterlimit="1.45">
      <text x="876.8125" xml:space="preserve" y="380.5391" clip-path="url(#clipPath2)" stroke="none">code.out</text>
      <rect x="873.75" y="357" clip-path="url(#clipPath2)" fill="none" width="76" height="36" stroke-width="2"/>
      <path fill="none" d="M507 375 L528 375" stroke-width="2" clip-path="url(#clipPath2)"/>
      <path d="M537 375 L523.5 369.375 L526.875 375 L523.5 380.625 Z" stroke-width="2" clip-path="url(#clipPath2)" stroke="none"/>
      <path fill="none" d="M547 375 L726 375" stroke-width="2" clip-path="url(#clipPath2)"/>
      <path d="M735 375 L721.5 369.375 L724.875 375 L721.5 380.625 Z" stroke-width="2" clip-path="url(#clipPath2)" stroke="none"/>
      <path fill="none" d="M542 380 L542 466 L522.9912 466" stroke-width="2" clip-path="url(#clipPath2)"/>
      <path d="M513.9912 466 L527.4912 471.625 L524.1162 466 L527.4912 460.375 Z" stroke-width="2" clip-path="url(#clipPath2)" stroke="none"/>
      <path fill="none" d="M542 370 L542 262 L574 262" stroke-width="2" clip-path="url(#clipPath2)"/>
      <path d="M583 262 L569.5 256.375 L572.875 262 L569.5 267.625 Z" stroke-width="2" clip-path="url(#clipPath2)" stroke="none"/>
      <path fill="none" d="M182 375 L228 375" stroke-width="2" clip-path="url(#clipPath2)"/>
      <path d="M237 375 L223.5 369.375 L226.875 375 L223.5 380.625 Z" stroke-width="2" clip-path="url(#clipPath2)" stroke="none"/>
      <path fill="none" d="M182 336.75 L228.558 353.9562" stroke-width="2" clip-path="url(#clipPath2)"/>
      <path d="M237 357.0761 L226.287 347.1201 L227.5028 353.5663 L222.3872 357.6725 Z" stroke-width="2" clip-path="url(#clipPath2)" stroke="none"/>
      <path fill="none" d="M182 411.2784 L228.5066 394.9771" stroke-width="2" clip-path="url(#clipPath2)"/>
      <path d="M237 392 L222.3993 391.1572 L227.445 395.3492 L226.1206 401.7739 Z" stroke-width="2" clip-path="url(#clipPath2)" stroke="none"/>
      <path fill="none" d="M334 375 L358 375" stroke-width="2" clip-path="url(#clipPath2)"/>
      <path d="M367 375 L353.5 369.375 L356.875 375 L353.5 380.625 Z" stroke-width="2" clip-path="url(#clipPath2)" stroke="none"/>
      <path fill="none" d="M403 479 L372 479 L372 389" stroke-width="2" clip-path="url(#clipPath2)"/>
      <path d="M372 380 L366.375 393.5 L372 390.125 L377.625 393.5 Z" stroke-width="2" clip-path="url(#clipPath2)" stroke="none"/>
    </g>
    <g stroke-linecap="butt" transform="matrix(1,0,0,1,-83,-131)" text-rendering="geometricPrecision" shape-rendering="geometricPrecision" stroke-dasharray="18,6" stroke-width="3" stroke-miterlimit="1.45">
      <path fill="none" d="M372 304 L372 370" clip-path="url(#clipPath2)"/>
      <path fill="none" stroke-dasharray="none" d="M377 375 L401 375" stroke-width="2" clip-path="url(#clipPath2)"/>
      <path stroke-dasharray="none" d="M410 375 L396.5 369.375 L399.875 375 L396.5 380.625 Z" stroke-width="2" clip-path="url(#clipPath2)" stroke="none"/>
      <path fill="none" stroke-dasharray="12,4" d="M598.0645 419 L545.9333 378.0869" stroke-width="2" clip-path="url(#clipPath2)"/>
      <path fill="none" stroke-dasharray="none" d="M680 262 L769.5 262" stroke-width="2" clip-path="url(#clipPath2)"/>
      <path stroke-dasharray="none" d="M778.5 262 L765 256.375 L768.375 262 L765 267.625 Z" stroke-width="2" clip-path="url(#clipPath2)" stroke="none"/>
      <path fill="none" stroke-dasharray="none" d="M783.5 267 L783.5 333" stroke-width="2" clip-path="url(#clipPath2)"/>
      <path stroke-dasharray="none" d="M783.5 342 L789.125 328.5 L783.5 331.875 L777.875 328.5 Z" stroke-width="2" clip-path="url(#clipPath2)" stroke="none"/>
      <path fill="none" stroke-dasharray="12,4" d="M763.75 209 L783.5 209 L783.5 257" stroke-width="2" clip-path="url(#clipPath2)"/>
      <path fill="none" stroke-dasharray="12,4" d="M763.75 160.8203 L783.5 159 L783.5 257" stroke-width="2" clip-path="url(#clipPath2)"/>
      <path fill="none" stroke-dasharray="none" d="M832 375 L864.75 375" stroke-width="2" clip-path="url(#clipPath2)"/>
      <path stroke-dasharray="none" d="M873.75 375 L860.25 369.375 L863.625 375 L860.25 380.625 Z" stroke-width="2" clip-path="url(#clipPath2)" stroke="none"/>
      <path fill="none" stroke-dasharray="none" d="M911.75 393 L911.75 492 L523.0148 492" stroke-width="2" clip-path="url(#clipPath2)"/>
      <path stroke-dasharray="none" d="M514.0148 492 L527.5148 497.625 L524.1398 492 L527.5148 486.375 Z" stroke-width="2" clip-path="url(#clipPath2)" stroke="none"/>
    </g>
  </g>
</svg>
