<?xml version="1.0" encoding="UTF-8"?><svg xmlns="http://www.w3.org/2000/svg" xmlns:xlink="http://www.w3.org/1999/xlink" fill-opacity="1" color-rendering="auto" color-interpolation="auto" text-rendering="auto" stroke="black" stroke-linecap="square" width="761" stroke-miterlimit="10" shape-rendering="auto" stroke-opacity="1" fill="black" stroke-dasharray="none" font-weight="normal" stroke-width="1" height="380" font-family="'Dialog'" font-style="normal" stroke-linejoin="miter" font-size="12px" stroke-dashoffset="0" image-rendering="auto">
  <!--Generated by ySVG 2.5-->
  <defs id="genericDefs"/>
  <g>
    <defs id="defs1">
      <clipPath clipPathUnits="userSpaceOnUse" id="clipPath1">
        <path d="M0 0 L761 0 L761 380 L0 380 L0 0 Z"/>
      </clipPath>
      <clipPath clipPathUnits="userSpaceOnUse" id="clipPath2">
        <path d="M9 183 L770 183 L770 563 L9 563 L9 183 Z"/>
      </clipPath>
    </defs>
    <g fill="white" text-rendering="geometricPrecision" shape-rendering="geometricPrecision" transform="translate(-9,-183)" stroke="white">
      <rect x="9" width="761" height="380" y="183" clip-path="url(#clipPath2)" stroke="none"/>
    </g>
    <g fill="white" text-rendering="geometricPrecision" shape-rendering="geometricPrecision" transform="matrix(1,0,0,1,-9,-183)" stroke="white">
      <rect x="24" width="133" height="73" y="261" clip-path="url(#clipPath2)" stroke="none"/>
    </g>
    <g font-size="16px" stroke-linecap="butt" transform="matrix(1,0,0,1,-9,-183)" text-rendering="geometricPrecision" font-family="sans-serif" shape-rendering="geometricPrecision" stroke-miterlimit="1.45">
      <text x="50.0117" xml:space="preserve" y="293.7266" clip-path="url(#clipPath2)" stroke="none">Исходная</text>
      <text x="44.1406" xml:space="preserve" y="312.3516" clip-path="url(#clipPath2)" stroke="none">программа</text>
      <rect x="24" y="261" clip-path="url(#clipPath2)" fill="none" width="133" height="73" stroke-width="2"/>
    </g>
    <g fill="white" text-rendering="geometricPrecision" shape-rendering="geometricPrecision" transform="matrix(1,0,0,1,-9,-183)" stroke="white">
      <rect x="480" width="97" height="66" y="264.5" clip-path="url(#clipPath2)" stroke="none"/>
    </g>
    <g font-size="16px" stroke-linecap="butt" transform="matrix(1,0,0,1,-9,-183)" text-rendering="geometricPrecision" font-family="sans-serif" shape-rendering="geometricPrecision" stroke-miterlimit="1.45">
      <text x="498.1055" xml:space="preserve" y="303.0391" clip-path="url(#clipPath2)" stroke="none">Парсер</text>
      <rect x="480" y="264.5" clip-path="url(#clipPath2)" fill="none" width="97" height="66" stroke-width="2"/>
    </g>
    <g fill="white" text-rendering="geometricPrecision" shape-rendering="geometricPrecision" transform="matrix(1,0,0,1,-9,-183)" stroke="white">
      <rect x="366.5" width="92" height="51" y="198.5" clip-path="url(#clipPath2)" stroke="none"/>
    </g>
    <g font-size="16px" stroke-linecap="butt" transform="matrix(1,0,0,1,-9,-183)" text-rendering="geometricPrecision" font-family="sans-serif" shape-rendering="geometricPrecision" stroke-miterlimit="1.45">
      <text x="381.418" xml:space="preserve" y="229.5391" clip-path="url(#clipPath2)" stroke="none">Токены</text>
      <rect x="366.5" y="198.5" clip-path="url(#clipPath2)" fill="none" width="92" height="51" stroke-width="2"/>
    </g>
    <g fill="white" text-rendering="geometricPrecision" shape-rendering="geometricPrecision" transform="matrix(1,0,0,1,-9,-183)" stroke="white">
      <circle r="5" clip-path="url(#clipPath2)" cx="412.5" cy="297.5" stroke="none"/>
    </g>
    <g text-rendering="geometricPrecision" stroke-miterlimit="1.45" stroke-width="2" shape-rendering="geometricPrecision" transform="matrix(1,0,0,1,-9,-183)" stroke-linecap="butt">
      <circle fill="none" r="5" clip-path="url(#clipPath2)" cx="412.5" cy="297.5"/>
    </g>
    <g fill="white" text-rendering="geometricPrecision" shape-rendering="geometricPrecision" transform="matrix(1,0,0,1,-9,-183)" stroke="white">
      <rect x="207.5" width="139" height="81" y="257" clip-path="url(#clipPath2)" stroke="none"/>
    </g>
    <g font-size="16px" stroke-linecap="butt" transform="matrix(1,0,0,1,-9,-183)" text-rendering="geometricPrecision" font-family="sans-serif" shape-rendering="geometricPrecision" stroke-miterlimit="1.45">
      <text x="222.3555" xml:space="preserve" y="293.7266" clip-path="url(#clipPath2)" stroke="none">Лексический</text>
      <text x="227.8633" xml:space="preserve" y="312.3516" clip-path="url(#clipPath2)" stroke="none">анализатор</text>
      <rect x="207.5" y="257" clip-path="url(#clipPath2)" fill="none" width="139" height="81" stroke-width="2"/>
    </g>
    <g fill="white" text-rendering="geometricPrecision" shape-rendering="geometricPrecision" transform="matrix(1,0,0,1,-9,-183)" stroke="white">
      <rect x="343" width="139" height="81" y="427" clip-path="url(#clipPath2)" stroke="none"/>
    </g>
    <g font-size="16px" stroke-linecap="butt" transform="matrix(1,0,0,1,-9,-183)" text-rendering="geometricPrecision" font-family="sans-serif" shape-rendering="geometricPrecision" stroke-miterlimit="1.45">
      <text x="377.1172" xml:space="preserve" y="463.7266" clip-path="url(#clipPath2)" stroke="none">Таблица</text>
      <text x="372.5352" xml:space="preserve" y="482.3516" clip-path="url(#clipPath2)" stroke="none">символов</text>
      <rect x="343" y="427" clip-path="url(#clipPath2)" fill="none" width="139" height="81" stroke-width="2"/>
    </g>
    <g fill="white" text-rendering="geometricPrecision" shape-rendering="geometricPrecision" transform="matrix(1,0,0,1,-9,-183)" stroke="white">
      <circle r="5" clip-path="url(#clipPath2)" cx="617.1667" cy="404.5" stroke="none"/>
    </g>
    <g text-rendering="geometricPrecision" stroke-miterlimit="1.45" stroke-width="2" shape-rendering="geometricPrecision" transform="matrix(1,0,0,1,-9,-183)" stroke-linecap="butt">
      <circle fill="none" r="5" clip-path="url(#clipPath2)" cx="617.1667" cy="404.5"/>
    </g>
    <g fill="white" text-rendering="geometricPrecision" shape-rendering="geometricPrecision" transform="matrix(1,0,0,1,-9,-183)" stroke="white">
      <rect x="547.6667" width="139" height="81" y="467" clip-path="url(#clipPath2)" stroke="none"/>
    </g>
    <g font-size="16px" stroke-linecap="butt" transform="matrix(1,0,0,1,-9,-183)" text-rendering="geometricPrecision" font-family="sans-serif" shape-rendering="geometricPrecision" stroke-miterlimit="1.45">
      <text x="551.3542" xml:space="preserve" y="503.7266" clip-path="url(#clipPath2)" stroke="none">Семантический</text>
      <text x="568.03" xml:space="preserve" y="522.3516" clip-path="url(#clipPath2)" stroke="none">анализатор</text>
      <rect x="547.6667" y="467" clip-path="url(#clipPath2)" fill="none" width="139" height="81" stroke-width="2"/>
    </g>
    <g fill="white" text-rendering="geometricPrecision" shape-rendering="geometricPrecision" transform="matrix(1,0,0,1,-9,-183)" stroke="white">
      <rect x="662.1667" width="92" height="51" y="379" clip-path="url(#clipPath2)" stroke="none"/>
    </g>
    <g font-size="16px" stroke-linecap="butt" transform="matrix(1,0,0,1,-9,-183)" text-rendering="geometricPrecision" font-family="sans-serif" shape-rendering="geometricPrecision" stroke-miterlimit="1.45">
      <text x="692.7292" xml:space="preserve" y="410.0391" clip-path="url(#clipPath2)" stroke="none">AST</text>
      <rect x="662.1667" y="379" clip-path="url(#clipPath2)" fill="none" width="92" height="51" stroke-width="2"/>
    </g>
    <g fill="white" text-rendering="geometricPrecision" shape-rendering="geometricPrecision" transform="matrix(1,0,0,1,-9,-183)" stroke="white">
      <rect x="628.8333" width="125.3333" height="66" y="264.5" clip-path="url(#clipPath2)" stroke="none"/>
    </g>
    <g font-size="16px" stroke-linecap="butt" transform="matrix(1,0,0,1,-9,-183)" text-rendering="geometricPrecision" font-family="sans-serif" shape-rendering="geometricPrecision" stroke-miterlimit="1.45">
      <text x="665.4492" xml:space="preserve" y="293.7266" clip-path="url(#clipPath2)" stroke="none">AST/IR</text>
      <text x="648.125" xml:space="preserve" y="312.3516" clip-path="url(#clipPath2)" stroke="none">+символы</text>
      <rect x="628.8333" y="264.5" clip-path="url(#clipPath2)" fill="none" width="125.3333" height="66" stroke-width="2"/>
    </g>
    <g stroke-linecap="butt" transform="matrix(1,0,0,1,-9,-183)" text-rendering="geometricPrecision" shape-rendering="geometricPrecision" stroke-dasharray="18,6" stroke-width="3" stroke-miterlimit="1.45">
      <path fill="none" d="M412.5 249.5 L412.5 292.5" clip-path="url(#clipPath2)"/>
      <path fill="none" stroke-dasharray="none" d="M417.5 297.5 L471 297.5" stroke-width="2" clip-path="url(#clipPath2)"/>
      <path stroke-dasharray="none" d="M480 297.5 L466.5 291.875 L469.875 297.5 L466.5 303.125 Z" stroke-width="2" clip-path="url(#clipPath2)" stroke="none"/>
      <path fill="none" stroke-dasharray="none" d="M157 297.5 L198.5 297.5" stroke-width="2" clip-path="url(#clipPath2)"/>
      <path stroke-dasharray="none" d="M207.5 297.5 L194 291.875 L197.375 297.5 L194 303.125 Z" stroke-width="2" clip-path="url(#clipPath2)" stroke="none"/>
      <path fill="none" stroke-dasharray="none" d="M346.5 297.5 L398.5 297.5" stroke-width="2" clip-path="url(#clipPath2)"/>
      <path stroke-dasharray="none" d="M407.5 297.5 L394 291.875 L397.375 297.5 L394 303.125 Z" stroke-width="2" clip-path="url(#clipPath2)" stroke="none"/>
      <path fill="none" stroke-dasharray="none" d="M309.2809 338 L374.6095 419.9621" stroke-width="2" clip-path="url(#clipPath2)"/>
      <path stroke-dasharray="none" d="M380.2191 427 L376.2034 412.9371 L373.9083 419.0824 L367.406 419.9492 Z" stroke-width="2" clip-path="url(#clipPath2)" stroke="none"/>
      <path fill="none" stroke-dasharray="none" d="M505.9824 330.5 L445.208 419.5658" stroke-width="2" clip-path="url(#clipPath2)"/>
      <path stroke-dasharray="none" d="M440.1353 427 L452.3908 419.0192 L445.8421 418.6365 L443.098 412.6783 Z" stroke-width="2" clip-path="url(#clipPath2)" stroke="none"/>
      <path fill="none" stroke-dasharray="none" d="M555.8458 330.5 L608.2338 393.7202" stroke-width="2" clip-path="url(#clipPath2)"/>
      <path stroke-dasharray="none" d="M613.9764 400.6501 L609.6937 386.6662 L607.516 392.8539 L601.0314 393.8444 Z" stroke-width="2" clip-path="url(#clipPath2)" stroke="none"/>
      <path fill="none" stroke-dasharray="none" d="M617.1667 467 L617.1667 418.5" stroke-width="2" clip-path="url(#clipPath2)"/>
      <path stroke-dasharray="none" d="M617.1667 409.5 L611.5417 423 L617.1667 419.625 L622.7917 423 Z" stroke-width="2" clip-path="url(#clipPath2)" stroke="none"/>
      <path fill="none" stroke-dasharray="none" d="M600.0667 467 L545.9341 338.7913" stroke-width="2" clip-path="url(#clipPath2)"/>
      <path stroke-dasharray="none" d="M542.4333 330.5 L542.5024 345.1248 L546.3716 339.8277 L552.8665 340.7489 Z" stroke-width="2" clip-path="url(#clipPath2)" stroke="none"/>
      <path fill="none" d="M622.1667 404.5 L662.1667 404.5" clip-path="url(#clipPath2)"/>
      <path fill="none" stroke-dasharray="none" d="M577 297.5 L619.8333 297.5" stroke-width="2" clip-path="url(#clipPath2)"/>
      <path stroke-dasharray="none" d="M628.8333 297.5 L615.3333 291.875 L618.7083 297.5 L615.3333 303.125 Z" stroke-width="2" clip-path="url(#clipPath2)" stroke="none"/>
    </g>
  </g>
</svg>
