<?xml version="1.0" encoding="UTF-8"?><svg xmlns="http://www.w3.org/2000/svg" xmlns:xlink="http://www.w3.org/1999/xlink" fill-opacity="1" color-rendering="auto" color-interpolation="auto" text-rendering="auto" stroke="black" stroke-linecap="square" width="946" stroke-miterlimit="10" shape-rendering="auto" stroke-opacity="1" fill="black" stroke-dasharray="none" font-weight="normal" stroke-width="1" height="374" font-family="'Dialog'" font-style="normal" stroke-linejoin="miter" font-size="12px" stroke-dashoffset="0" image-rendering="auto">
  <!--Generated by ySVG 2.5-->
  <defs id="genericDefs"/>
  <g>
    <defs id="defs1">
      <clipPath clipPathUnits="userSpaceOnUse" id="clipPath1">
        <path d="M0 0 L946 0 L946 374 L0 374 L0 0 Z"/>
      </clipPath>
      <clipPath clipPathUnits="userSpaceOnUse" id="clipPath2">
        <path d="M180 99 L1126 99 L1126 473 L180 473 L180 99 Z"/>
      </clipPath>
    </defs>
    <g fill="white" text-rendering="geometricPrecision" shape-rendering="geometricPrecision" transform="translate(-180,-99)" stroke="white">
      <rect x="180" width="946" height="374" y="99" clip-path="url(#clipPath2)" stroke="none"/>
    </g>
    <g fill="white" text-rendering="geometricPrecision" shape-rendering="geometricPrecision" transform="matrix(1,0,0,1,-180,-99)" stroke="white">
      <rect x="195" width="116" height="66" y="188" clip-path="url(#clipPath2)" stroke="none"/>
    </g>
    <g font-size="16px" stroke-linecap="butt" transform="matrix(1,0,0,1,-180,-99)" text-rendering="geometricPrecision" font-family="sans-serif" shape-rendering="geometricPrecision" stroke-miterlimit="1.45">
      <text x="200.8633" xml:space="preserve" y="226.5391" clip-path="url(#clipPath2)" stroke="none">Preprocessor</text>
      <rect x="195" y="188" clip-path="url(#clipPath2)" fill="none" width="116" height="66" stroke-width="2"/>
    </g>
    <g fill="white" text-rendering="geometricPrecision" shape-rendering="geometricPrecision" transform="matrix(1,0,0,1,-180,-99)" stroke="white">
      <rect x="387" width="116" height="66" y="188" clip-path="url(#clipPath2)" stroke="none"/>
    </g>
    <g font-size="16px" stroke-linecap="butt" transform="matrix(1,0,0,1,-180,-99)" text-rendering="geometricPrecision" font-family="sans-serif" shape-rendering="geometricPrecision" stroke-miterlimit="1.45">
      <text x="408.9375" xml:space="preserve" y="226.5391" clip-path="url(#clipPath2)" stroke="none">Frontend</text>
      <rect x="387" y="188" clip-path="url(#clipPath2)" fill="none" width="116" height="66" stroke-width="2"/>
    </g>
    <g fill="white" text-rendering="geometricPrecision" shape-rendering="geometricPrecision" transform="matrix(1,0,0,1,-180,-99)" stroke="white">
      <rect x="293.5" width="111" height="36" y="114" clip-path="url(#clipPath2)" stroke="none"/>
    </g>
    <g font-size="16px" stroke-linecap="butt" transform="matrix(1,0,0,1,-180,-99)" text-rendering="geometricPrecision" font-family="sans-serif" shape-rendering="geometricPrecision" stroke-miterlimit="1.45">
      <text x="324.9414" xml:space="preserve" y="137.5391" clip-path="url(#clipPath2)" stroke="none">code.i</text>
      <rect x="293.5" y="114" clip-path="url(#clipPath2)" fill="none" width="111" height="36" stroke-width="2"/>
    </g>
    <g fill="white" text-rendering="geometricPrecision" shape-rendering="geometricPrecision" transform="matrix(1,0,0,1,-180,-99)" stroke="white">
      <circle r="5" clip-path="url(#clipPath2)" cx="349" cy="221" stroke="none"/>
    </g>
    <g text-rendering="geometricPrecision" stroke-miterlimit="1.45" stroke-width="2" shape-rendering="geometricPrecision" transform="matrix(1,0,0,1,-180,-99)" stroke-linecap="butt">
      <circle fill="none" r="5" clip-path="url(#clipPath2)" cx="349" cy="221"/>
    </g>
    <g fill="white" text-rendering="geometricPrecision" shape-rendering="geometricPrecision" transform="matrix(1,0,0,1,-180,-99)" stroke="white">
      <rect x="587.5" width="188" height="66" y="188" clip-path="url(#clipPath2)" stroke="none"/>
    </g>
    <g font-size="16px" stroke-linecap="butt" transform="matrix(1,0,0,1,-180,-99)" text-rendering="geometricPrecision" font-family="sans-serif" shape-rendering="geometricPrecision" stroke-miterlimit="1.45">
      <text x="594.5547" xml:space="preserve" y="217.2266" clip-path="url(#clipPath2)" stroke="none">Machine-independent</text>
      <text x="627.5586" xml:space="preserve" y="235.8516" clip-path="url(#clipPath2)" stroke="none">optimizations</text>
      <rect x="587.5" y="188" clip-path="url(#clipPath2)" fill="none" width="188" height="66" stroke-width="2"/>
    </g>
    <g fill="white" text-rendering="geometricPrecision" shape-rendering="geometricPrecision" transform="matrix(1,0,0,1,-180,-99)" stroke="white">
      <rect x="494" width="111" height="36" y="114" clip-path="url(#clipPath2)" stroke="none"/>
    </g>
    <g font-size="16px" stroke-linecap="butt" transform="matrix(1,0,0,1,-180,-99)" text-rendering="geometricPrecision" font-family="sans-serif" shape-rendering="geometricPrecision" stroke-miterlimit="1.45">
      <text x="498.7422" xml:space="preserve" y="137.5391" clip-path="url(#clipPath2)" stroke="none">High-level IR</text>
      <rect x="494" y="114" clip-path="url(#clipPath2)" fill="none" width="111" height="36" stroke-width="2"/>
    </g>
    <g fill="white" text-rendering="geometricPrecision" shape-rendering="geometricPrecision" transform="matrix(1,0,0,1,-180,-99)" stroke="white">
      <circle r="5" clip-path="url(#clipPath2)" cx="549.5" cy="221" stroke="none"/>
    </g>
    <g text-rendering="geometricPrecision" stroke-miterlimit="1.45" stroke-width="2" shape-rendering="geometricPrecision" transform="matrix(1,0,0,1,-180,-99)" stroke-linecap="butt">
      <circle fill="none" r="5" clip-path="url(#clipPath2)" cx="549.5" cy="221"/>
    </g>
    <g fill="white" text-rendering="geometricPrecision" shape-rendering="geometricPrecision" transform="matrix(1,0,0,1,-180,-99)" stroke="white">
      <rect x="865.5" width="193" height="66" y="188" clip-path="url(#clipPath2)" stroke="none"/>
    </g>
    <g font-size="16px" stroke-linecap="butt" transform="matrix(1,0,0,1,-180,-99)" text-rendering="geometricPrecision" font-family="sans-serif" shape-rendering="geometricPrecision" stroke-miterlimit="1.45">
      <text x="882.3477" xml:space="preserve" y="207.9141" clip-path="url(#clipPath2)" stroke="none">Machine-dependent</text>
      <text x="908.0586" xml:space="preserve" y="226.5391" clip-path="url(#clipPath2)" stroke="none">optimizations</text>
      <text x="892.4414" xml:space="preserve" y="245.1641" clip-path="url(#clipPath2)" stroke="none">(virtual registers)</text>
    </g>
    <g stroke-linecap="butt" transform="matrix(1,0,0,1,-180,-99)" fill="red" text-rendering="geometricPrecision" shape-rendering="geometricPrecision" stroke="red" stroke-width="2" stroke-miterlimit="1.45">
      <rect fill="none" x="865.5" width="193" height="66" y="188" clip-path="url(#clipPath2)"/>
    </g>
    <g fill="white" text-rendering="geometricPrecision" shape-rendering="geometricPrecision" transform="matrix(1,0,0,1,-180,-99)" stroke="white">
      <rect x="772" width="111" height="36" y="114" clip-path="url(#clipPath2)" stroke="none"/>
    </g>
    <g font-size="16px" stroke-linecap="butt" transform="matrix(1,0,0,1,-180,-99)" text-rendering="geometricPrecision" font-family="sans-serif" shape-rendering="geometricPrecision" stroke-miterlimit="1.45">
      <text x="780.9258" xml:space="preserve" y="137.5391" clip-path="url(#clipPath2)" stroke="none">Mid-level IR</text>
      <rect x="772" y="114" clip-path="url(#clipPath2)" fill="none" width="111" height="36" stroke-width="2"/>
    </g>
    <g fill="white" text-rendering="geometricPrecision" shape-rendering="geometricPrecision" transform="matrix(1,0,0,1,-180,-99)" stroke="white">
      <circle r="5" clip-path="url(#clipPath2)" cx="827.5" cy="221" stroke="none"/>
    </g>
    <g text-rendering="geometricPrecision" stroke-miterlimit="1.45" stroke-width="2" shape-rendering="geometricPrecision" transform="matrix(1,0,0,1,-180,-99)" stroke-linecap="butt">
      <circle fill="none" r="5" clip-path="url(#clipPath2)" cx="827.5" cy="221"/>
    </g>
    <g fill="white" text-rendering="geometricPrecision" shape-rendering="geometricPrecision" transform="matrix(1,0,0,1,-180,-99)" stroke="white">
      <rect x="443.5" width="193" height="66" y="391.6667" clip-path="url(#clipPath2)" stroke="none"/>
    </g>
    <g font-size="16px" stroke-linecap="butt" transform="matrix(1,0,0,1,-180,-99)" text-rendering="geometricPrecision" font-family="sans-serif" shape-rendering="geometricPrecision" stroke-miterlimit="1.45">
      <text x="460.3477" xml:space="preserve" y="411.5807" clip-path="url(#clipPath2)" stroke="none">Machine-dependent</text>
      <text x="486.0586" xml:space="preserve" y="430.2057" clip-path="url(#clipPath2)" stroke="none">optimizations</text>
      <text x="463.2227" xml:space="preserve" y="448.8307" clip-path="url(#clipPath2)" stroke="none">(physical registers)</text>
    </g>
    <g stroke-linecap="butt" transform="matrix(1,0,0,1,-180,-99)" fill="red" text-rendering="geometricPrecision" shape-rendering="geometricPrecision" stroke="red" stroke-width="2" stroke-miterlimit="1.45">
      <rect fill="none" x="443.5" width="193" height="66" y="391.6667" clip-path="url(#clipPath2)"/>
    </g>
    <g fill="white" text-rendering="geometricPrecision" shape-rendering="geometricPrecision" transform="matrix(1,0,0,1,-180,-99)" stroke="white">
      <rect x="350" width="111" height="36" y="317.6667" clip-path="url(#clipPath2)" stroke="none"/>
    </g>
    <g font-size="16px" stroke-linecap="butt" transform="matrix(1,0,0,1,-180,-99)" text-rendering="geometricPrecision" font-family="sans-serif" shape-rendering="geometricPrecision" stroke-miterlimit="1.45">
      <text x="357.2344" xml:space="preserve" y="341.2057" clip-path="url(#clipPath2)" stroke="none">Low-level IR</text>
      <rect x="350" y="317.6667" clip-path="url(#clipPath2)" fill="none" width="111" height="36" stroke-width="2"/>
    </g>
    <g fill="white" text-rendering="geometricPrecision" shape-rendering="geometricPrecision" transform="matrix(1,0,0,1,-180,-99)" stroke="white">
      <circle r="5" clip-path="url(#clipPath2)" cx="405.5" cy="424.6667" stroke="none"/>
    </g>
    <g text-rendering="geometricPrecision" stroke-miterlimit="1.45" stroke-width="2" shape-rendering="geometricPrecision" transform="matrix(1,0,0,1,-180,-99)" stroke-linecap="butt">
      <circle fill="none" r="5" clip-path="url(#clipPath2)" cx="405.5" cy="424.6667"/>
    </g>
    <g fill="white" text-rendering="geometricPrecision" shape-rendering="geometricPrecision" transform="matrix(1,0,0,1,-180,-99)" stroke="white">
      <rect x="715.6875" width="188" height="66" y="391.6667" clip-path="url(#clipPath2)" stroke="none"/>
    </g>
    <g font-size="16px" stroke-linecap="butt" transform="matrix(1,0,0,1,-180,-99)" text-rendering="geometricPrecision" font-family="sans-serif" shape-rendering="geometricPrecision" stroke-miterlimit="1.45">
      <text x="743.1562" xml:space="preserve" y="430.2057" clip-path="url(#clipPath2)" stroke="none">Code generation</text>
      <rect x="715.6875" y="391.6667" clip-path="url(#clipPath2)" fill="none" width="188" height="66" stroke-width="2"/>
      <path fill="none" d="M311 221 L335 221" stroke-width="2" clip-path="url(#clipPath2)"/>
      <path d="M344 221 L330.5 215.375 L333.875 221 L330.5 226.625 Z" stroke-width="2" clip-path="url(#clipPath2)" stroke="none"/>
    </g>
    <g stroke-linecap="butt" transform="matrix(1,0,0,1,-180,-99)" text-rendering="geometricPrecision" shape-rendering="geometricPrecision" stroke-dasharray="18,6" stroke-width="3" stroke-miterlimit="1.45">
      <path fill="none" d="M349 150 L349 216" clip-path="url(#clipPath2)"/>
      <path fill="none" stroke-dasharray="none" d="M354 221 L378 221" stroke-width="2" clip-path="url(#clipPath2)"/>
      <path stroke-dasharray="none" d="M387 221 L373.5 215.375 L376.875 221 L373.5 226.625 Z" stroke-width="2" clip-path="url(#clipPath2)" stroke="none"/>
      <path fill="none" d="M549.5 150 L549.5 216" clip-path="url(#clipPath2)"/>
      <path fill="none" stroke-dasharray="none" d="M503 221 L535.5 221" stroke-width="2" clip-path="url(#clipPath2)"/>
      <path stroke-dasharray="none" d="M544.5 221 L531 215.375 L534.375 221 L531 226.625 Z" stroke-width="2" clip-path="url(#clipPath2)" stroke="none"/>
      <path fill="none" stroke-dasharray="none" d="M554.5 221 L578.5 221" stroke-width="2" clip-path="url(#clipPath2)"/>
      <path stroke-dasharray="none" d="M587.5 221 L574 215.375 L577.375 221 L574 226.625 Z" stroke-width="2" clip-path="url(#clipPath2)" stroke="none"/>
      <path fill="none" d="M827.5 150 L827.5 216" clip-path="url(#clipPath2)"/>
      <path fill="none" stroke-dasharray="none" d="M775.5 221 L813.5 221" stroke-width="2" clip-path="url(#clipPath2)"/>
      <path stroke-dasharray="none" d="M822.5 221 L809 215.375 L812.375 221 L809 226.625 Z" stroke-width="2" clip-path="url(#clipPath2)" stroke="none"/>
      <path fill="none" stroke-dasharray="none" d="M832.5 221 L856.5 221" stroke-width="2" clip-path="url(#clipPath2)"/>
      <path stroke-dasharray="none" d="M865.5 221 L852 215.375 L855.375 221 L852 226.625 Z" stroke-width="2" clip-path="url(#clipPath2)" stroke="none"/>
      <path fill="none" d="M405.5 353.6667 L405.5 419.6667" clip-path="url(#clipPath2)"/>
      <path fill="none" stroke-dasharray="none" d="M1058.5 221 L1110.1875 221 L1110.1875 279.6667 L242.1875 279.6667 L242.1875 424.6667 L391.5 424.6667" stroke-width="2" clip-path="url(#clipPath2)"/>
      <path stroke-dasharray="none" d="M400.5 424.6667 L387 419.0417 L390.375 424.6667 L387 430.2917 Z" stroke-width="2" clip-path="url(#clipPath2)" stroke="none"/>
      <path fill="none" stroke-dasharray="none" d="M410.5 424.6667 L434.5 424.6667" stroke-width="2" clip-path="url(#clipPath2)"/>
      <path stroke-dasharray="none" d="M443.5 424.6667 L430 419.0417 L433.375 424.6667 L430 430.2917 Z" stroke-width="2" clip-path="url(#clipPath2)" stroke="none"/>
      <path fill="none" stroke-dasharray="none" d="M636.5 424.6667 L706.6875 424.6667" stroke-width="2" clip-path="url(#clipPath2)"/>
      <path stroke-dasharray="none" d="M715.6875 424.6667 L702.1875 419.0417 L705.5625 424.6667 L702.1875 430.2917 Z" stroke-width="2" clip-path="url(#clipPath2)" stroke="none"/>
    </g>
  </g>
</svg>
