<?xml version="1.0" encoding="UTF-8"?><svg xmlns="http://www.w3.org/2000/svg" xmlns:xlink="http://www.w3.org/1999/xlink" fill-opacity="1" color-rendering="auto" color-interpolation="auto" text-rendering="auto" stroke="black" stroke-linecap="square" width="585" stroke-miterlimit="10" shape-rendering="auto" stroke-opacity="1" fill="black" stroke-dasharray="none" font-weight="normal" stroke-width="1" height="236" font-family="'Dialog'" font-style="normal" stroke-linejoin="miter" font-size="12px" stroke-dashoffset="0" image-rendering="auto">
  <!--Generated by ySVG 2.5-->
  <defs id="genericDefs"/>
  <g>
    <defs id="defs1">
      <clipPath clipPathUnits="userSpaceOnUse" id="clipPath1">
        <path d="M0 0 L585 0 L585 236 L0 236 L0 0 Z"/>
      </clipPath>
      <clipPath clipPathUnits="userSpaceOnUse" id="clipPath2">
        <path d="M98 253 L683 253 L683 489 L98 489 L98 253 Z"/>
      </clipPath>
    </defs>
    <g fill="white" text-rendering="geometricPrecision" shape-rendering="geometricPrecision" transform="translate(-98,-253)" stroke="white">
      <rect x="98" width="585" height="236" y="253" clip-path="url(#clipPath2)" stroke="none"/>
    </g>
    <g fill="white" text-rendering="geometricPrecision" shape-rendering="geometricPrecision" transform="matrix(1,0,0,1,-98,-253)" stroke="white">
      <rect x="223" width="118" height="66" y="342" clip-path="url(#clipPath2)" stroke="none"/>
    </g>
    <g font-size="16px" stroke-linecap="butt" transform="matrix(1,0,0,1,-98,-253)" text-rendering="geometricPrecision" font-family="sans-serif" shape-rendering="geometricPrecision" stroke-miterlimit="1.45">
      <text x="230.4023" xml:space="preserve" y="380.5391" clip-path="url(#clipPath2)" stroke="none">Компилятор</text>
      <rect x="223" y="342" clip-path="url(#clipPath2)" fill="none" width="118" height="66" stroke-width="2"/>
    </g>
    <g fill="white" text-rendering="geometricPrecision" shape-rendering="geometricPrecision" transform="matrix(1,0,0,1,-98,-253)" stroke="white">
      <rect x="399" width="108" height="66" y="342" clip-path="url(#clipPath2)" stroke="none"/>
    </g>
    <g font-size="16px" stroke-linecap="butt" transform="matrix(1,0,0,1,-98,-253)" text-rendering="geometricPrecision" font-family="sans-serif" shape-rendering="geometricPrecision" stroke-miterlimit="1.45">
      <text x="407.7266" xml:space="preserve" y="380.5391" clip-path="url(#clipPath2)" stroke="none">Ассемблер</text>
      <rect x="399" y="342" clip-path="url(#clipPath2)" fill="none" width="108" height="66" stroke-width="2"/>
    </g>
    <g fill="white" text-rendering="geometricPrecision" shape-rendering="geometricPrecision" transform="matrix(1,0,0,1,-98,-253)" stroke="white">
      <rect x="570.875" width="97" height="66" y="342" clip-path="url(#clipPath2)" stroke="none"/>
    </g>
    <g font-size="16px" stroke-linecap="butt" transform="matrix(1,0,0,1,-98,-253)" text-rendering="geometricPrecision" font-family="sans-serif" shape-rendering="geometricPrecision" stroke-miterlimit="1.45">
      <text x="588.0977" xml:space="preserve" y="380.5391" clip-path="url(#clipPath2)" stroke="none">Линкер</text>
      <rect x="570.875" y="342" clip-path="url(#clipPath2)" fill="none" width="97" height="66" stroke-width="2"/>
    </g>
    <g fill="white" text-rendering="geometricPrecision" shape-rendering="geometricPrecision" transform="matrix(1,0,0,1,-98,-253)" stroke="white">
      <circle r="5" clip-path="url(#clipPath2)" cx="542" cy="375" stroke="none"/>
    </g>
    <g text-rendering="geometricPrecision" stroke-miterlimit="1.45" stroke-width="2" shape-rendering="geometricPrecision" transform="matrix(1,0,0,1,-98,-253)" stroke-linecap="butt">
      <circle fill="none" r="5" clip-path="url(#clipPath2)" cx="542" cy="375"/>
    </g>
    <g fill="white" text-rendering="geometricPrecision" shape-rendering="geometricPrecision" transform="matrix(1,0,0,1,-98,-253)" stroke="white">
      <rect x="113" width="69" height="36" y="357" clip-path="url(#clipPath2)" stroke="none"/>
    </g>
    <g font-size="16px" stroke-linecap="butt" transform="matrix(1,0,0,1,-98,-253)" text-rendering="geometricPrecision" font-family="sans-serif" shape-rendering="geometricPrecision" stroke-miterlimit="1.45">
      <text x="121.2656" xml:space="preserve" y="380.5391" clip-path="url(#clipPath2)" stroke="none">code.c</text>
      <rect x="113" y="357" clip-path="url(#clipPath2)" fill="none" width="69" height="36" stroke-width="2"/>
    </g>
    <g fill="white" text-rendering="geometricPrecision" shape-rendering="geometricPrecision" transform="matrix(1,0,0,1,-98,-253)" stroke="white">
      <rect x="113" width="69" height="36" y="306" clip-path="url(#clipPath2)" stroke="none"/>
    </g>
    <g font-size="16px" stroke-linecap="butt" transform="matrix(1,0,0,1,-98,-253)" text-rendering="geometricPrecision" font-family="sans-serif" shape-rendering="geometricPrecision" stroke-miterlimit="1.45">
      <text x="122.8477" xml:space="preserve" y="329.5391" clip-path="url(#clipPath2)" stroke="none">code.f</text>
      <rect x="113" y="306" clip-path="url(#clipPath2)" fill="none" width="69" height="36" stroke-width="2"/>
    </g>
    <g fill="white" text-rendering="geometricPrecision" shape-rendering="geometricPrecision" transform="matrix(1,0,0,1,-98,-253)" stroke="white">
      <rect x="113" width="84" height="36" y="408" clip-path="url(#clipPath2)" stroke="none"/>
    </g>
    <g font-size="16px" stroke-linecap="butt" transform="matrix(1,0,0,1,-98,-253)" text-rendering="geometricPrecision" font-family="sans-serif" shape-rendering="geometricPrecision" stroke-miterlimit="1.45">
      <text x="118.6094" xml:space="preserve" y="431.5391" clip-path="url(#clipPath2)" stroke="none">code.cpp</text>
      <rect x="113" y="408" clip-path="url(#clipPath2)" fill="none" width="84" height="36" stroke-width="2"/>
    </g>
    <g fill="white" text-rendering="geometricPrecision" shape-rendering="geometricPrecision" transform="matrix(1,0,0,1,-98,-253)" stroke="white">
      <circle r="5" clip-path="url(#clipPath2)" cx="372" cy="375" stroke="none"/>
    </g>
    <g text-rendering="geometricPrecision" stroke-miterlimit="1.45" stroke-width="2" shape-rendering="geometricPrecision" transform="matrix(1,0,0,1,-98,-253)" stroke-linecap="butt">
      <circle fill="none" r="5" clip-path="url(#clipPath2)" cx="372" cy="375"/>
    </g>
    <g fill="white" text-rendering="geometricPrecision" shape-rendering="geometricPrecision" transform="matrix(1,0,0,1,-98,-253)" stroke="white">
      <rect x="507.5" width="69" height="36" y="268" clip-path="url(#clipPath2)" stroke="none"/>
    </g>
    <g font-size="16px" stroke-linecap="butt" transform="matrix(1,0,0,1,-98,-253)" text-rendering="geometricPrecision" font-family="sans-serif" shape-rendering="geometricPrecision" stroke-miterlimit="1.45">
      <text x="515.2695" xml:space="preserve" y="291.5391" clip-path="url(#clipPath2)" stroke="none">code.o</text>
      <rect x="507.5" y="268" clip-path="url(#clipPath2)" fill="none" width="69" height="36" stroke-width="2"/>
    </g>
    <g fill="white" text-rendering="geometricPrecision" shape-rendering="geometricPrecision" transform="matrix(1,0,0,1,-98,-253)" stroke="white">
      <rect x="581.375" width="76" height="36" y="438" clip-path="url(#clipPath2)" stroke="none"/>
    </g>
    <g font-size="16px" stroke-linecap="butt" transform="matrix(1,0,0,1,-98,-253)" text-rendering="geometricPrecision" font-family="sans-serif" shape-rendering="geometricPrecision" stroke-miterlimit="1.45">
      <text x="584.4375" xml:space="preserve" y="461.5391" clip-path="url(#clipPath2)" stroke="none">code.out</text>
      <rect x="581.375" y="438" clip-path="url(#clipPath2)" fill="none" width="76" height="36" stroke-width="2"/>
    </g>
    <g fill="white" text-rendering="geometricPrecision" shape-rendering="geometricPrecision" transform="matrix(1,0,0,1,-98,-253)" stroke="white">
      <rect x="337.5" width="69" height="36" y="268" clip-path="url(#clipPath2)" stroke="none"/>
    </g>
    <g font-size="16px" stroke-linecap="butt" transform="matrix(1,0,0,1,-98,-253)" text-rendering="geometricPrecision" font-family="sans-serif" shape-rendering="geometricPrecision" stroke-miterlimit="1.45">
      <text x="345.9961" xml:space="preserve" y="291.5391" clip-path="url(#clipPath2)" stroke="none">code.s</text>
      <rect x="337.5" y="268" clip-path="url(#clipPath2)" fill="none" width="69" height="36" stroke-width="2"/>
      <path fill="none" d="M507 375 L528 375" stroke-width="2" clip-path="url(#clipPath2)"/>
      <path d="M537 375 L523.5 369.375 L526.875 375 L523.5 380.625 Z" stroke-width="2" clip-path="url(#clipPath2)" stroke="none"/>
      <path fill="none" d="M547 375 L561.875 375" stroke-width="2" clip-path="url(#clipPath2)"/>
      <path d="M570.875 375 L557.375 369.375 L560.75 375 L557.375 380.625 Z" stroke-width="2" clip-path="url(#clipPath2)" stroke="none"/>
      <path fill="none" d="M182 375 L214 375" stroke-width="2" clip-path="url(#clipPath2)"/>
      <path d="M223 375 L209.5 369.375 L212.875 375 L209.5 380.625 Z" stroke-width="2" clip-path="url(#clipPath2)" stroke="none"/>
      <path fill="none" d="M182 337.0818 L214.5847 349.4373" stroke-width="2" clip-path="url(#clipPath2)"/>
      <path d="M223 352.6283 L212.3713 342.5822 L213.5327 349.0385 L208.3827 353.1014 Z" stroke-width="2" clip-path="url(#clipPath2)" stroke="none"/>
      <path fill="none" d="M197 409.1339 L214.6483 402.0468" stroke-width="2" clip-path="url(#clipPath2)"/>
      <path d="M223 398.6929 L208.3762 398.5038 L213.6043 402.466 L212.5685 408.9435 Z" stroke-width="2" clip-path="url(#clipPath2)" stroke="none"/>
      <path fill="none" d="M341 375 L358 375" stroke-width="2" clip-path="url(#clipPath2)"/>
      <path d="M367 375 L353.5 369.375 L356.875 375 L353.5 380.625 Z" stroke-width="2" clip-path="url(#clipPath2)" stroke="none"/>
      <path fill="none" d="M377 375 L390 375" stroke-width="2" clip-path="url(#clipPath2)"/>
      <path d="M399 375 L385.5 369.375 L388.875 375 L385.5 380.625 Z" stroke-width="2" clip-path="url(#clipPath2)" stroke="none"/>
    </g>
    <g stroke-linecap="butt" transform="matrix(1,0,0,1,-98,-253)" text-rendering="geometricPrecision" shape-rendering="geometricPrecision" stroke-dasharray="12,4" stroke-width="2" stroke-miterlimit="1.45">
      <path fill="none" d="M542 304 L542 370" clip-path="url(#clipPath2)"/>
      <path fill="none" stroke-dasharray="none" d="M619.375 408 L619.375 429" clip-path="url(#clipPath2)"/>
      <path stroke-dasharray="none" d="M619.375 438 L625 424.5 L619.375 427.875 L613.75 424.5 Z" clip-path="url(#clipPath2)" stroke="none"/>
      <path fill="none" stroke-dasharray="18,6" d="M372 304 L372 370" stroke-width="3" clip-path="url(#clipPath2)"/>
    </g>
  </g>
</svg>
