<?xml version="1.0" encoding="UTF-8"?><svg xmlns="http://www.w3.org/2000/svg" xmlns:xlink="http://www.w3.org/1999/xlink" fill-opacity="1" color-rendering="auto" color-interpolation="auto" text-rendering="auto" stroke="black" stroke-linecap="square" width="348" stroke-miterlimit="10" shape-rendering="auto" stroke-opacity="1" fill="black" stroke-dasharray="none" font-weight="normal" stroke-width="1" height="346" font-family="'Dialog'" font-style="normal" stroke-linejoin="miter" font-size="12px" stroke-dashoffset="0" image-rendering="auto">
  <!--Generated by ySVG 2.5-->
  <defs id="genericDefs"/>
  <g>
    <defs id="defs1">
      <clipPath clipPathUnits="userSpaceOnUse" id="clipPath1">
        <path d="M0 0 L348 0 L348 346 L0 346 L0 0 Z"/>
      </clipPath>
      <clipPath clipPathUnits="userSpaceOnUse" id="clipPath2">
        <path d="M95 31 L443 31 L443 377 L95 377 L95 31 Z"/>
      </clipPath>
    </defs>
    <g fill="white" text-rendering="geometricPrecision" shape-rendering="geometricPrecision" transform="translate(-95,-31)" stroke="white">
      <rect x="95" width="348" height="346" y="31" clip-path="url(#clipPath2)" stroke="none"/>
    </g>
    <g fill="rgb(204,255,255)" text-rendering="geometricPrecision" shape-rendering="geometricPrecision" transform="matrix(1,0,0,1,-95,-31)" stroke="rgb(204,255,255)">
      <rect x="216.1441" width="105.7119" height="42.6102" y="46.178" clip-path="url(#clipPath2)" stroke="none"/>
    </g>
    <g text-rendering="geometricPrecision" stroke-miterlimit="1.45" shape-rendering="geometricPrecision" font-family="sans-serif" transform="matrix(1,0,0,1,-95,-31)" stroke-linecap="butt">
      <text x="234.585" xml:space="preserve" y="71.6373" clip-path="url(#clipPath2)" stroke="none">x = input ()</text>
      <rect fill="none" x="216.1441" width="105.7119" height="42.6102" y="46.178" clip-path="url(#clipPath2)"/>
    </g>
    <g fill="rgb(204,255,255)" text-rendering="geometricPrecision" shape-rendering="geometricPrecision" transform="matrix(1,0,0,1,-95,-31)" stroke="rgb(204,255,255)">
      <path d="M216.1441 140.0932 L269 118.7881 L321.8559 140.0932 L269 161.3983 Z" fill-rule="evenodd" clip-path="url(#clipPath2)" stroke="none"/>
    </g>
    <g text-rendering="geometricPrecision" stroke-miterlimit="1.45" shape-rendering="geometricPrecision" font-family="sans-serif" transform="matrix(1,0,0,1,-95,-31)" stroke-linecap="butt">
      <text x="245.7881" xml:space="preserve" y="144.2475" clip-path="url(#clipPath2)" stroke="none">x &gt; 42?</text>
      <path fill="none" d="M216.1441 140.0932 L269 118.7881 L321.8559 140.0932 L269 161.3983 Z" clip-path="url(#clipPath2)" fill-rule="evenodd"/>
    </g>
    <g fill="rgb(204,255,255)" text-rendering="geometricPrecision" shape-rendering="geometricPrecision" transform="matrix(1,0,0,1,-95,-31)" stroke="rgb(204,255,255)">
      <rect x="110.4322" width="105.7119" height="42.6102" y="191.3983" clip-path="url(#clipPath2)" stroke="none"/>
    </g>
    <g text-rendering="geometricPrecision" stroke-miterlimit="1.45" shape-rendering="geometricPrecision" font-family="sans-serif" transform="matrix(1,0,0,1,-95,-31)" stroke-linecap="butt">
      <text x="143.2608" xml:space="preserve" y="216.8577" clip-path="url(#clipPath2)" stroke="none">y1 = 1</text>
      <rect fill="none" x="110.4322" width="105.7119" height="42.6102" y="191.3983" clip-path="url(#clipPath2)"/>
    </g>
    <g fill="rgb(204,255,255)" text-rendering="geometricPrecision" shape-rendering="geometricPrecision" transform="matrix(1,0,0,1,-95,-31)" stroke="rgb(204,255,255)">
      <rect x="321.8559" width="105.7119" height="42.6102" y="191.3983" clip-path="url(#clipPath2)" stroke="none"/>
    </g>
    <g text-rendering="geometricPrecision" stroke-miterlimit="1.45" shape-rendering="geometricPrecision" font-family="sans-serif" transform="matrix(1,0,0,1,-95,-31)" stroke-linecap="butt">
      <text x="342.2919" xml:space="preserve" y="216.8577" clip-path="url(#clipPath2)" stroke="none">y2 = x + 2</text>
      <rect fill="none" x="321.8559" width="105.7119" height="42.6102" y="191.3983" clip-path="url(#clipPath2)"/>
    </g>
    <g fill="rgb(204,255,255)" text-rendering="geometricPrecision" shape-rendering="geometricPrecision" transform="matrix(1,0,0,1,-95,-31)" stroke="rgb(204,255,255)">
      <rect x="218.5441" width="105.7119" height="42.6102" y="318.961" clip-path="url(#clipPath2)" stroke="none"/>
    </g>
    <g text-rendering="geometricPrecision" stroke-miterlimit="1.45" shape-rendering="geometricPrecision" font-family="sans-serif" transform="matrix(1,0,0,1,-95,-31)" stroke-linecap="butt">
      <text x="250.6402" xml:space="preserve" y="344.4204" clip-path="url(#clipPath2)" stroke="none">use (y)</text>
      <rect fill="none" x="218.5441" width="105.7119" height="42.6102" y="318.961" clip-path="url(#clipPath2)"/>
    </g>
    <g fill="white" text-rendering="geometricPrecision" shape-rendering="geometricPrecision" transform="matrix(1,0,0,1,-95,-31)" stroke="white">
      <circle r="8.5" clip-path="url(#clipPath2)" cx="269" cy="280.461" stroke="none"/>
    </g>
    <g text-rendering="geometricPrecision" stroke-miterlimit="1.45" shape-rendering="geometricPrecision" font-family="sans-serif" transform="matrix(1,0,0,1,-95,-31)" stroke-linecap="butt">
      <text x="230.6895" xml:space="preserve" y="263.131" clip-path="url(#clipPath2)" stroke="none">y = phi (y1, y2)</text>
      <circle fill="none" stroke-dasharray="6,2" r="8.5" clip-path="url(#clipPath2)" cx="269" cy="280.461"/>
      <path fill="none" d="M269 88.7881 L269 110.7746" clip-path="url(#clipPath2)"/>
      <path d="M269 118.7746 L274 106.7746 L269 109.7746 L264 106.7746 Z" clip-path="url(#clipPath2)" stroke="none"/>
      <path fill="none" d="M216.1699 140.0932 L163.2881 140.0932 L163.2881 183.3983" clip-path="url(#clipPath2)"/>
      <path d="M163.2881 191.3983 L168.2881 179.3983 L163.2881 182.3983 L158.2881 179.3983 Z" clip-path="url(#clipPath2)" stroke="none"/>
      <text x="183.2318" xml:space="preserve" y="131.9543" clip-path="url(#clipPath2)" stroke="none">yes</text>
      <path fill="none" d="M321.8301 140.0932 L374.7119 140.0932 L374.7119 183.3983" clip-path="url(#clipPath2)"/>
      <path d="M374.7119 191.3983 L379.7119 179.3983 L374.7119 182.3983 L369.7119 179.3983 Z" clip-path="url(#clipPath2)" stroke="none"/>
      <path fill="none" d="M163.2881 234.0085 L163.2881 280.461 L252.5 280.461" clip-path="url(#clipPath2)"/>
      <path d="M260.5 280.461 L248.5 275.461 L251.5 280.461 L248.5 285.461 Z" clip-path="url(#clipPath2)" stroke="none"/>
      <path fill="none" d="M374.7119 234.0085 L374.7119 280.461 L285.5 280.461" clip-path="url(#clipPath2)"/>
      <path d="M277.5 280.461 L289.5 285.461 L286.5 280.461 L289.5 275.461 Z" clip-path="url(#clipPath2)" stroke="none"/>
      <path fill="none" d="M269 288.961 L269 310.9686" clip-path="url(#clipPath2)"/>
      <path d="M269 318.9686 L274 306.9686 L269 309.9686 L264 306.9686 Z" clip-path="url(#clipPath2)" stroke="none"/>
    </g>
  </g>
</svg>
